<mxfile host="app.diagrams.net" modified="2021-12-02T09:19:22.299Z" agent="5.0 (Windows NT 10.0; Win64; x64) AppleWebKit/537.36 (KHTML, like Gecko) Chrome/93.0.4577.63 Safari/537.36" etag="v5-BXXFqAzYQe_8TcDRd" version="15.8.8" type="github">
  <diagram id="1QCmb-yRQSBI3CG8wyr_" name="Page-1">
    <mxGraphModel dx="2619" dy="811" grid="1" gridSize="10" guides="1" tooltips="1" connect="1" arrows="1" fold="1" page="1" pageScale="1" pageWidth="827" pageHeight="1169" math="0" shadow="0">
      <root>
        <mxCell id="0" />
        <mxCell id="1" parent="0" />
        <mxCell id="h0Rh2DAsyCIrhIGQMmOX-1" value="&lt;font style=&quot;vertical-align: inherit&quot;&gt;&lt;font style=&quot;vertical-align: inherit&quot;&gt;Tipos&lt;/font&gt;&lt;/font&gt;" style="ellipse;whiteSpace=wrap;html=1;shadow=0;fontFamily=Helvetica;fontSize=20;fontColor=#FFFFFF;align=center;strokeWidth=3;fillColor=#1699D3;strokeColor=none;" parent="1" vertex="1">
          <mxGeometry x="566.5" y="840" width="120" height="120" as="geometry" />
        </mxCell>
        <mxCell id="h0Rh2DAsyCIrhIGQMmOX-2" value="&lt;font style=&quot;vertical-align: inherit&quot;&gt;&lt;font style=&quot;vertical-align: inherit&quot;&gt;&lt;font style=&quot;vertical-align: inherit&quot;&gt;&lt;font style=&quot;vertical-align: inherit&quot;&gt;Conceptualizacion&lt;/font&gt;&lt;/font&gt;&lt;/font&gt;&lt;/font&gt;" style="ellipse;whiteSpace=wrap;html=1;shadow=0;fontFamily=Helvetica;fontSize=20;fontColor=#FFFFFF;align=center;strokeWidth=3;fillColor=#F08705;strokeColor=none;gradientColor=none;" parent="1" vertex="1">
          <mxGeometry x="1146.5" y="800" width="173.5" height="150" as="geometry" />
        </mxCell>
        <mxCell id="h0Rh2DAsyCIrhIGQMmOX-3" value="&lt;font style=&quot;vertical-align: inherit&quot;&gt;&lt;font style=&quot;vertical-align: inherit&quot;&gt;Teoria de conjuntos&lt;/font&gt;&lt;/font&gt;" style="ellipse;whiteSpace=wrap;html=1;shadow=1;fontFamily=Helvetica;fontSize=20;fontColor=#FFFFFF;align=center;strokeWidth=3;fillColor=#E85642;strokeColor=none;" parent="1" vertex="1">
          <mxGeometry x="1744" y="925" width="120" height="120" as="geometry" />
        </mxCell>
        <mxCell id="h0Rh2DAsyCIrhIGQMmOX-4" value="&lt;font style=&quot;vertical-align: inherit&quot;&gt;&lt;font style=&quot;vertical-align: inherit&quot;&gt;Probabilidad condicional&lt;/font&gt;&lt;/font&gt;" style="ellipse;whiteSpace=wrap;html=1;shadow=0;fontFamily=Helvetica;fontSize=20;fontColor=#FFFFFF;align=center;strokeWidth=3;fillColor=#1699D3;strokeColor=none;" parent="1" vertex="1">
          <mxGeometry x="1979" y="1375" width="120" height="120" as="geometry" />
        </mxCell>
        <mxCell id="h0Rh2DAsyCIrhIGQMmOX-5" value="&lt;font style=&quot;vertical-align: inherit&quot;&gt;&lt;font style=&quot;vertical-align: inherit&quot;&gt;Teorema de Bayes&lt;/font&gt;&lt;/font&gt;" style="ellipse;whiteSpace=wrap;html=1;shadow=0;fontFamily=Helvetica;fontSize=20;fontColor=#FFFFFF;align=center;strokeWidth=3;fillColor=#736ca8;strokeColor=none;" parent="1" vertex="1">
          <mxGeometry x="1754" y="1740" width="120" height="120" as="geometry" />
        </mxCell>
        <mxCell id="h0Rh2DAsyCIrhIGQMmOX-6" value="&lt;font style=&quot;vertical-align: inherit&quot;&gt;&lt;font style=&quot;vertical-align: inherit&quot;&gt;La probabilidad es un metodo por el cual se obtiene la frecuencia de un acontecimiento determindado mediante la realizacion de un experimento aleatorio, del que se conocen todos los resultados posibles, bajo condiciones suficientemente estables&lt;/font&gt;&lt;/font&gt;" style="ellipse;whiteSpace=wrap;html=1;shadow=0;fontFamily=Helvetica;fontSize=20;fontColor=#FFFFFF;align=center;strokeWidth=3;fillColor=#F08705;strokeColor=none;" parent="1" vertex="1">
          <mxGeometry x="1015.62" y="1692.5" width="435.25" height="330" as="geometry" />
        </mxCell>
        <mxCell id="h0Rh2DAsyCIrhIGQMmOX-7" value="&lt;font style=&quot;vertical-align: inherit&quot;&gt;&lt;font style=&quot;vertical-align: inherit&quot;&gt;&lt;font style=&quot;vertical-align: inherit&quot;&gt;&lt;font style=&quot;vertical-align: inherit&quot;&gt;Tecnicas de conteo&lt;/font&gt;&lt;/font&gt;&lt;/font&gt;&lt;/font&gt;" style="ellipse;whiteSpace=wrap;html=1;shadow=0;fontFamily=Helvetica;fontSize=20;fontColor=#FFFFFF;align=center;strokeWidth=3;fillColor=#E85642;strokeColor=none;" parent="1" vertex="1">
          <mxGeometry x="601.5" y="1740" width="120" height="120" as="geometry" />
        </mxCell>
        <mxCell id="h0Rh2DAsyCIrhIGQMmOX-8" value="Dolphin" style="rounded=1;fillColor=#64BBE2;strokeColor=none;strokeWidth=3;shadow=0;html=1;fontColor=#FFFFFF;" parent="1" vertex="1">
          <mxGeometry x="391.5" y="985" width="130" height="40" as="geometry" />
        </mxCell>
        <mxCell id="h0Rh2DAsyCIrhIGQMmOX-9" style="endArrow=none;strokeWidth=6;strokeColor=#1699D3;html=1;rounded=0;" parent="1" source="h0Rh2DAsyCIrhIGQMmOX-81" target="h0Rh2DAsyCIrhIGQMmOX-1" edge="1">
          <mxGeometry relative="1" as="geometry" />
        </mxCell>
        <mxCell id="h0Rh2DAsyCIrhIGQMmOX-10" style="endArrow=none;strokeWidth=6;strokeColor=#f08705;html=1;rounded=0;exitX=0.5;exitY=0;exitDx=0;exitDy=0;" parent="1" source="h0Rh2DAsyCIrhIGQMmOX-81" target="h0Rh2DAsyCIrhIGQMmOX-2" edge="1">
          <mxGeometry relative="1" as="geometry">
            <mxPoint x="1250.25" y="1195" as="sourcePoint" />
          </mxGeometry>
        </mxCell>
        <mxCell id="h0Rh2DAsyCIrhIGQMmOX-11" style="endArrow=none;strokeWidth=6;strokeColor=#E85642;html=1;rounded=0;" parent="1" source="h0Rh2DAsyCIrhIGQMmOX-81" target="h0Rh2DAsyCIrhIGQMmOX-3" edge="1">
          <mxGeometry relative="1" as="geometry" />
        </mxCell>
        <mxCell id="h0Rh2DAsyCIrhIGQMmOX-12" style="endArrow=none;strokeWidth=6;strokeColor=#1699D3;html=1;rounded=0;" parent="1" source="h0Rh2DAsyCIrhIGQMmOX-81" target="h0Rh2DAsyCIrhIGQMmOX-4" edge="1">
          <mxGeometry relative="1" as="geometry" />
        </mxCell>
        <mxCell id="h0Rh2DAsyCIrhIGQMmOX-13" style="endArrow=none;strokeWidth=6;strokeColor=#736CA8;html=1;rounded=0;startArrow=none;" parent="1" target="h0Rh2DAsyCIrhIGQMmOX-82" edge="1">
          <mxGeometry relative="1" as="geometry">
            <mxPoint x="743.2963526942958" y="1286.9242143685296" as="sourcePoint" />
          </mxGeometry>
        </mxCell>
        <mxCell id="h0Rh2DAsyCIrhIGQMmOX-14" style="endArrow=none;strokeWidth=6;strokeColor=#736ca8;html=1;rounded=0;" parent="1" source="h0Rh2DAsyCIrhIGQMmOX-81" target="h0Rh2DAsyCIrhIGQMmOX-5" edge="1">
          <mxGeometry relative="1" as="geometry" />
        </mxCell>
        <mxCell id="h0Rh2DAsyCIrhIGQMmOX-15" value="" style="edgeStyle=none;endArrow=none;strokeWidth=6;strokeColor=#F08705;html=1;rounded=0;" parent="1" source="h0Rh2DAsyCIrhIGQMmOX-81" target="h0Rh2DAsyCIrhIGQMmOX-6" edge="1">
          <mxGeometry x="224" y="795" width="100" height="100" as="geometry">
            <mxPoint x="224" y="895" as="sourcePoint" />
            <mxPoint x="324" y="795" as="targetPoint" />
          </mxGeometry>
        </mxCell>
        <mxCell id="h0Rh2DAsyCIrhIGQMmOX-16" value="" style="edgeStyle=none;endArrow=none;strokeWidth=6;strokeColor=#E85642;html=1;rounded=0;" parent="1" source="h0Rh2DAsyCIrhIGQMmOX-81" target="h0Rh2DAsyCIrhIGQMmOX-7" edge="1">
          <mxGeometry x="224" y="795" width="100" height="100" as="geometry">
            <mxPoint x="224" y="895" as="sourcePoint" />
            <mxPoint x="324" y="795" as="targetPoint" />
          </mxGeometry>
        </mxCell>
        <mxCell id="h0Rh2DAsyCIrhIGQMmOX-17" value="Lion" style="rounded=1;fillColor=#64BBE2;strokeColor=none;strokeWidth=3;shadow=0;html=1;fontColor=#FFFFFF;" parent="1" vertex="1">
          <mxGeometry x="461.5" y="1035" width="130" height="40" as="geometry" />
        </mxCell>
        <mxCell id="h0Rh2DAsyCIrhIGQMmOX-18" value="Elephant" style="rounded=1;fillColor=#64BBE2;strokeColor=none;strokeWidth=3;shadow=0;html=1;fontColor=#FFFFFF;" parent="1" vertex="1">
          <mxGeometry x="361.5" y="915" width="130" height="40" as="geometry" />
        </mxCell>
        <mxCell id="h0Rh2DAsyCIrhIGQMmOX-19" value="Cat" style="rounded=1;fillColor=#64BBE2;strokeColor=none;strokeWidth=3;shadow=0;html=1;fontColor=#FFFFFF;" parent="1" vertex="1">
          <mxGeometry x="361.5" y="840" width="130" height="40" as="geometry" />
        </mxCell>
        <mxCell id="h0Rh2DAsyCIrhIGQMmOX-20" value="Giraffe" style="rounded=1;fillColor=#64BBE2;strokeColor=none;strokeWidth=3;shadow=0;html=1;fontColor=#FFFFFF;" parent="1" vertex="1">
          <mxGeometry x="401.5" y="775" width="130" height="40" as="geometry" />
        </mxCell>
        <mxCell id="h0Rh2DAsyCIrhIGQMmOX-21" value="Dog" style="rounded=1;fillColor=#64BBE2;strokeColor=none;strokeWidth=3;shadow=0;html=1;fontColor=#FFFFFF;" parent="1" vertex="1">
          <mxGeometry x="451.5" y="715" width="130" height="40" as="geometry" />
        </mxCell>
        <mxCell id="h0Rh2DAsyCIrhIGQMmOX-22" value="Donkey" style="rounded=1;fillColor=#64BBE2;strokeColor=none;strokeWidth=3;shadow=0;html=1;fontColor=#FFFFFF;" parent="1" vertex="1">
          <mxGeometry x="531.5" y="655" width="130" height="40" as="geometry" />
        </mxCell>
        <mxCell id="h0Rh2DAsyCIrhIGQMmOX-23" value="Leopard" style="rounded=1;fillColor=#64BBE2;strokeColor=none;strokeWidth=3;shadow=0;html=1;fontColor=#FFFFFF;" parent="1" vertex="1">
          <mxGeometry x="651.5" y="715" width="130" height="40" as="geometry" />
        </mxCell>
        <mxCell id="h0Rh2DAsyCIrhIGQMmOX-24" value="Horse" style="rounded=1;fillColor=#64BBE2;strokeColor=none;strokeWidth=3;shadow=0;html=1;fontColor=#FFFFFF;" parent="1" vertex="1">
          <mxGeometry x="706.5" y="775" width="130" height="40" as="geometry" />
        </mxCell>
        <mxCell id="h0Rh2DAsyCIrhIGQMmOX-25" value="Zebra" style="rounded=1;fillColor=#64BBE2;strokeColor=none;strokeWidth=3;shadow=0;html=1;fontColor=#FFFFFF;" parent="1" vertex="1">
          <mxGeometry x="741.5" y="835" width="130" height="40" as="geometry" />
        </mxCell>
        <mxCell id="h0Rh2DAsyCIrhIGQMmOX-26" value="Gazelle" style="rounded=1;fillColor=#64BBE2;strokeColor=none;strokeWidth=3;shadow=0;html=1;fontColor=#FFFFFF;" parent="1" vertex="1">
          <mxGeometry x="756.5" y="915" width="130" height="40" as="geometry" />
        </mxCell>
        <mxCell id="h0Rh2DAsyCIrhIGQMmOX-27" value="" style="edgeStyle=none;endArrow=none;strokeWidth=3;strokeColor=#64BBE2;html=1;rounded=0;" parent="1" source="h0Rh2DAsyCIrhIGQMmOX-1" target="h0Rh2DAsyCIrhIGQMmOX-26" edge="1">
          <mxGeometry x="-178.5" y="625" width="100" height="100" as="geometry">
            <mxPoint x="-178.5" y="725" as="sourcePoint" />
            <mxPoint x="-78.5" y="625" as="targetPoint" />
          </mxGeometry>
        </mxCell>
        <mxCell id="h0Rh2DAsyCIrhIGQMmOX-28" value="" style="edgeStyle=none;endArrow=none;strokeWidth=3;strokeColor=#64BBE2;html=1;rounded=0;" parent="1" source="h0Rh2DAsyCIrhIGQMmOX-1" target="h0Rh2DAsyCIrhIGQMmOX-17" edge="1">
          <mxGeometry x="-178.5" y="625" width="100" height="100" as="geometry">
            <mxPoint x="-178.5" y="725" as="sourcePoint" />
            <mxPoint x="-78.5" y="625" as="targetPoint" />
          </mxGeometry>
        </mxCell>
        <mxCell id="h0Rh2DAsyCIrhIGQMmOX-29" value="" style="edgeStyle=none;endArrow=none;strokeWidth=3;strokeColor=#64BBE2;html=1;rounded=0;" parent="1" source="h0Rh2DAsyCIrhIGQMmOX-1" target="h0Rh2DAsyCIrhIGQMmOX-8" edge="1">
          <mxGeometry x="-178.5" y="625" width="100" height="100" as="geometry">
            <mxPoint x="-178.5" y="725" as="sourcePoint" />
            <mxPoint x="-78.5" y="625" as="targetPoint" />
          </mxGeometry>
        </mxCell>
        <mxCell id="h0Rh2DAsyCIrhIGQMmOX-30" value="" style="edgeStyle=none;endArrow=none;strokeWidth=3;strokeColor=#64BBE2;html=1;rounded=0;" parent="1" source="h0Rh2DAsyCIrhIGQMmOX-1" target="h0Rh2DAsyCIrhIGQMmOX-18" edge="1">
          <mxGeometry x="-178.5" y="625" width="100" height="100" as="geometry">
            <mxPoint x="-178.5" y="725" as="sourcePoint" />
            <mxPoint x="-78.5" y="625" as="targetPoint" />
          </mxGeometry>
        </mxCell>
        <mxCell id="h0Rh2DAsyCIrhIGQMmOX-31" value="" style="edgeStyle=none;endArrow=none;strokeWidth=3;strokeColor=#64BBE2;html=1;rounded=0;" parent="1" source="h0Rh2DAsyCIrhIGQMmOX-1" target="h0Rh2DAsyCIrhIGQMmOX-19" edge="1">
          <mxGeometry x="-178.5" y="625" width="100" height="100" as="geometry">
            <mxPoint x="-178.5" y="725" as="sourcePoint" />
            <mxPoint x="-78.5" y="625" as="targetPoint" />
          </mxGeometry>
        </mxCell>
        <mxCell id="h0Rh2DAsyCIrhIGQMmOX-32" value="" style="edgeStyle=none;endArrow=none;strokeWidth=3;strokeColor=#64BBE2;html=1;rounded=0;" parent="1" source="h0Rh2DAsyCIrhIGQMmOX-1" target="h0Rh2DAsyCIrhIGQMmOX-20" edge="1">
          <mxGeometry x="-178.5" y="625" width="100" height="100" as="geometry">
            <mxPoint x="-178.5" y="725" as="sourcePoint" />
            <mxPoint x="-78.5" y="625" as="targetPoint" />
          </mxGeometry>
        </mxCell>
        <mxCell id="h0Rh2DAsyCIrhIGQMmOX-33" value="" style="edgeStyle=none;endArrow=none;strokeWidth=3;strokeColor=#64BBE2;html=1;rounded=0;" parent="1" source="h0Rh2DAsyCIrhIGQMmOX-1" target="h0Rh2DAsyCIrhIGQMmOX-21" edge="1">
          <mxGeometry x="-178.5" y="625" width="100" height="100" as="geometry">
            <mxPoint x="-178.5" y="725" as="sourcePoint" />
            <mxPoint x="-78.5" y="625" as="targetPoint" />
          </mxGeometry>
        </mxCell>
        <mxCell id="h0Rh2DAsyCIrhIGQMmOX-34" value="" style="edgeStyle=none;endArrow=none;strokeWidth=3;strokeColor=#64BBE2;html=1;rounded=0;" parent="1" source="h0Rh2DAsyCIrhIGQMmOX-1" target="h0Rh2DAsyCIrhIGQMmOX-22" edge="1">
          <mxGeometry x="-178.5" y="625" width="100" height="100" as="geometry">
            <mxPoint x="-178.5" y="725" as="sourcePoint" />
            <mxPoint x="-78.5" y="625" as="targetPoint" />
          </mxGeometry>
        </mxCell>
        <mxCell id="h0Rh2DAsyCIrhIGQMmOX-35" value="" style="edgeStyle=none;endArrow=none;strokeWidth=3;strokeColor=#64BBE2;html=1;rounded=0;" parent="1" source="h0Rh2DAsyCIrhIGQMmOX-1" target="h0Rh2DAsyCIrhIGQMmOX-23" edge="1">
          <mxGeometry x="-178.5" y="625" width="100" height="100" as="geometry">
            <mxPoint x="-178.5" y="725" as="sourcePoint" />
            <mxPoint x="-78.5" y="625" as="targetPoint" />
          </mxGeometry>
        </mxCell>
        <mxCell id="h0Rh2DAsyCIrhIGQMmOX-36" value="" style="edgeStyle=none;endArrow=none;strokeWidth=3;strokeColor=#64BBE2;html=1;rounded=0;" parent="1" source="h0Rh2DAsyCIrhIGQMmOX-1" target="h0Rh2DAsyCIrhIGQMmOX-24" edge="1">
          <mxGeometry x="-178.5" y="625" width="100" height="100" as="geometry">
            <mxPoint x="-178.5" y="725" as="sourcePoint" />
            <mxPoint x="-78.5" y="625" as="targetPoint" />
          </mxGeometry>
        </mxCell>
        <mxCell id="h0Rh2DAsyCIrhIGQMmOX-37" value="" style="edgeStyle=none;endArrow=none;strokeWidth=3;strokeColor=#64BBE2;html=1;rounded=0;" parent="1" source="h0Rh2DAsyCIrhIGQMmOX-1" target="h0Rh2DAsyCIrhIGQMmOX-25" edge="1">
          <mxGeometry x="-178.5" y="625" width="100" height="100" as="geometry">
            <mxPoint x="-178.5" y="725" as="sourcePoint" />
            <mxPoint x="-78.5" y="625" as="targetPoint" />
          </mxGeometry>
        </mxCell>
        <UserObject label="&lt;p style=&quot;text-align: justify&quot;&gt;&lt;font style=&quot;vertical-align: inherit&quot;&gt;&lt;font style=&quot;vertical-align: inherit&quot;&gt;&lt;font style=&quot;vertical-align: inherit&quot;&gt;&lt;font style=&quot;vertical-align: inherit&quot;&gt;&lt;font style=&quot;vertical-align: inherit&quot;&gt;&lt;font style=&quot;vertical-align: inherit&quot;&gt;&lt;font style=&quot;vertical-align: inherit&quot;&gt;&lt;font style=&quot;vertical-align: inherit&quot;&gt;&lt;font style=&quot;vertical-align: inherit&quot;&gt;&lt;font style=&quot;vertical-align: inherit&quot;&gt;&lt;font style=&quot;vertical-align: inherit&quot;&gt;&lt;font style=&quot;vertical-align: inherit&quot;&gt;&lt;font style=&quot;vertical-align: inherit&quot;&gt;&lt;font color=&quot;#000000&quot;&gt;La probabilidad es entonces el nivel de &lt;br&gt;certeza que se tiene sobre un evento especifico.&lt;/font&gt;&lt;/font&gt;&lt;/font&gt;&lt;/font&gt;&lt;/font&gt;&lt;/font&gt;&lt;/font&gt;&lt;/font&gt;&lt;/font&gt;&lt;/font&gt;&lt;/font&gt;&lt;/font&gt;&lt;/font&gt;&lt;/font&gt;&lt;/p&gt;&lt;p style=&quot;text-align: justify&quot;&gt;&lt;span style=&quot;color: rgb(0 , 0 , 0)&quot;&gt;Esto, en base a un valor entre 0 y 1, y cuando mas&amp;nbsp;&lt;br&gt;&lt;/span&gt;&lt;span style=&quot;color: rgb(0 , 0 , 0)&quot;&gt;cerca esté de la unidad, significara mayor certidumbre.&lt;br&gt;&lt;/span&gt;&lt;span style=&quot;color: rgb(0 , 0 , 0)&quot;&gt;Por el contrario cuando se aproxima a cero, existe&lt;br&gt;&lt;/span&gt;&lt;span style=&quot;color: rgb(0 , 0 , 0)&quot;&gt;menor seguridad en el resultado final.&lt;/span&gt;&lt;/p&gt;" link="https://economipedia.com/definiciones/probabilidad.html" linkTarget="_blank" id="h0Rh2DAsyCIrhIGQMmOX-38">
          <mxCell style="rounded=1;fillColor=#FFFF33;strokeColor=none;strokeWidth=3;shadow=0;html=1;fontColor=#FFFFFF;align=center;arcSize=12;" parent="1" vertex="1">
            <mxGeometry x="1079.5" y="580" width="307.5" height="110" as="geometry" />
          </mxCell>
        </UserObject>
        <mxCell id="h0Rh2DAsyCIrhIGQMmOX-39" value="" style="edgeStyle=none;endArrow=none;strokeWidth=3;strokeColor=#F5AF58;html=1;rounded=0;entryX=0.5;entryY=1;entryDx=0;entryDy=0;" parent="1" source="h0Rh2DAsyCIrhIGQMmOX-2" target="h0Rh2DAsyCIrhIGQMmOX-38" edge="1">
          <mxGeometry x="46.5" y="610" width="100" height="100" as="geometry">
            <mxPoint x="46.5" y="710" as="sourcePoint" />
            <mxPoint x="1146.9594594594596" y="710" as="targetPoint" />
          </mxGeometry>
        </mxCell>
        <mxCell id="h0Rh2DAsyCIrhIGQMmOX-40" value="¿Qué es la probabilidad?" style="edgeLabel;html=1;align=center;verticalAlign=middle;resizable=0;points=[];fontColor=#000000;" parent="h0Rh2DAsyCIrhIGQMmOX-39" vertex="1" connectable="0">
          <mxGeometry relative="1" as="geometry">
            <mxPoint y="-14" as="offset" />
          </mxGeometry>
        </mxCell>
        <UserObject label="&lt;p style=&quot;box-sizing: inherit ; margin: 0px 0px 20px ; padding: 0px ; font-family: &amp;#34;open sans&amp;#34; , sans-serif ; font-size: 16px&quot;&gt;&lt;font color=&quot;#000000&quot;&gt;La teoría de conjuntos es un área de estudio &lt;br&gt;enfocada en los conjuntos. Por tanto, se encarga &lt;br&gt;de analizar tanto los atributos que poseen, &lt;br&gt;como las relaciones que pueden establecerse entre ellos.&lt;br&gt;&lt;/font&gt;&lt;span style=&quot;color: rgb(0 , 0 , 0)&quot;&gt;Es decir, su unión, intersección, complemento u otro.&lt;/span&gt;&lt;/p&gt;&lt;p style=&quot;box-sizing: inherit ; margin: 0px 0px 20px ; padding: 0px ; font-family: &amp;#34;open sans&amp;#34; , sans-serif ; font-size: 16px&quot;&gt;&lt;span style=&quot;color: rgb(0 , 0 , 0)&quot;&gt;Debemos recordar que un conjunto es&lt;br&gt;&lt;/span&gt;&lt;font color=&quot;#000000&quot; style=&quot;color: rgb(0 , 0 , 0)&quot;&gt;&lt;iframe frameborder=&quot;0&quot; marginwidth=&quot;0&quot; marginheight=&quot;0&quot; width=&quot;0&quot; height=&quot;0&quot; style=&quot;box-sizing: inherit ; max-width: 100% ; height: 0px ; width: 0px&quot;&gt;&lt;/iframe&gt;&lt;/font&gt;&lt;span style=&quot;color: rgb(0 , 0 , 0)&quot;&gt;una agrupación de elementos,&lt;br&gt;&lt;/span&gt;&lt;span style=&quot;color: rgb(0 , 0 , 0)&quot;&gt;ya sean números, letras, palabras,&lt;br&gt;&lt;/span&gt;&lt;span style=&quot;color: rgb(0 , 0 , 0)&quot;&gt;funciones, símbolos, figuras geométricas u otros.&lt;/span&gt;&lt;font color=&quot;#000000&quot; style=&quot;color: rgb(0 , 0 , 0)&quot;&gt;&lt;img border=&quot;0&quot; width=&quot;1&quot; height=&quot;1&quot; src=&quot;https://beacon-iad2.rubiconproject.com/beacon/d/7e97ee50-ce6b-484e-bf3f-b92215ee4f17?oo=0&amp;amp;accountId=23404&amp;amp;siteId=382626&amp;amp;zoneId=2121486&amp;amp;sizeId=57&amp;amp;e=6A1E40E384DA563B0468C0EF3FF4F963007C1E4CD8A608D78E9F8E916C6D159EC087B02F546B14755DF8BA02AA1D5DAAE9F89206FC79094A89F430521B46DE1B74C9FD1EE7FDB3BD1B1043561F962A64A99BBC39987C86AD7A04B62074052572D0ECA835D347A8339785E7749972D5DAC2F1EC2B6CA4A8EC8B46A8F2D35A9D6F5FA4EE0B506DA4CE77B7304E30BB72590264968E10608322D6ACAC3EDC167A945EC1E2D8EDA8C925992425EAB4A7B278E8AFF223AD47AD29&quot; alt=&quot;&quot; style=&quot;box-sizing: inherit ; border-style: none ; max-width: 100% ; height: auto ; vertical-align: top&quot;&gt;&lt;/font&gt;&lt;/p&gt;" link="https://economipedia.com/definiciones/teoria-de-conjuntos.html" linkTarget="_blank" id="h0Rh2DAsyCIrhIGQMmOX-41">
          <mxCell style="rounded=1;fillColor=#FFFF66;strokeColor=none;strokeWidth=3;shadow=0;html=1;fontColor=#FFFFFF;align=center;arcSize=30;" parent="1" vertex="1">
            <mxGeometry x="1780" y="590" width="424" height="225" as="geometry" />
          </mxCell>
        </UserObject>
        <UserObject label="&lt;font color=&quot;#000000&quot;&gt;Ejercicios de &lt;br&gt;conjuntos resueltos&lt;/font&gt;" link="https://www.google.com/url?sa=i&amp;url=https%3A%2F%2Ffdocuments.ec%2Fdocument%2Fejercicios-de-conjuntos-resueltos.html&amp;psig=AOvVaw0Au5b6OqnxZpVHaDJcdnOW&amp;ust=1638513018464000&amp;source=images&amp;cd=vfe&amp;ved=0CAsQjRxqFwoTCLDj2Oa-xPQCFQAAAAAdAAAAABAJ" linkTarget="_blank" id="h0Rh2DAsyCIrhIGQMmOX-42">
          <mxCell style="rounded=1;fillColor=#0066CC;strokeColor=#FFFFFF;strokeWidth=3;shadow=1;html=1;fontColor=#FFFFFF;" parent="1" vertex="1">
            <mxGeometry x="1932" y="1120" width="120" height="40" as="geometry" />
          </mxCell>
        </UserObject>
        <mxCell id="h0Rh2DAsyCIrhIGQMmOX-43" value="" style="edgeStyle=none;endArrow=none;strokeWidth=3;strokeColor=#F08E81;html=1;rounded=0;entryX=0.5;entryY=1;entryDx=0;entryDy=0;exitX=1;exitY=0;exitDx=0;exitDy=0;" parent="1" source="h0Rh2DAsyCIrhIGQMmOX-3" target="h0Rh2DAsyCIrhIGQMmOX-41" edge="1">
          <mxGeometry x="72" y="675" width="100" height="100" as="geometry">
            <mxPoint x="1880" y="927" as="sourcePoint" />
            <mxPoint x="1861.3478260869565" y="775" as="targetPoint" />
          </mxGeometry>
        </mxCell>
        <mxCell id="h0Rh2DAsyCIrhIGQMmOX-44" value="¿Qué es?" style="edgeLabel;html=1;align=center;verticalAlign=middle;resizable=0;points=[];fontColor=#000000;" parent="h0Rh2DAsyCIrhIGQMmOX-43" vertex="1" connectable="0">
          <mxGeometry relative="1" as="geometry">
            <mxPoint x="4" y="-1" as="offset" />
          </mxGeometry>
        </mxCell>
        <mxCell id="h0Rh2DAsyCIrhIGQMmOX-45" value="" style="edgeStyle=none;endArrow=none;strokeWidth=3;strokeColor=#F08E81;html=1;rounded=0;entryX=0.5;entryY=0;entryDx=0;entryDy=0;exitX=1;exitY=1;exitDx=0;exitDy=0;" parent="1" source="h0Rh2DAsyCIrhIGQMmOX-3" target="h0Rh2DAsyCIrhIGQMmOX-42" edge="1">
          <mxGeometry x="74" y="675" width="100" height="100" as="geometry">
            <mxPoint x="74" y="775" as="sourcePoint" />
            <mxPoint x="174" y="675" as="targetPoint" />
          </mxGeometry>
        </mxCell>
        <mxCell id="h0Rh2DAsyCIrhIGQMmOX-46" value="Ejemplo" style="edgeLabel;html=1;align=center;verticalAlign=middle;resizable=0;points=[];fontColor=#000000;" parent="h0Rh2DAsyCIrhIGQMmOX-45" vertex="1" connectable="0">
          <mxGeometry relative="1" as="geometry">
            <mxPoint x="-28" y="-25" as="offset" />
          </mxGeometry>
        </mxCell>
        <UserObject label="&lt;font color=&quot;#000000&quot;&gt;La expresion alude &lt;br&gt;a la probabilidad existente de que&lt;br&gt;&amp;nbsp;suceda un evento A, &lt;br&gt;conociendo que ademas ocurre otro evento B&lt;/font&gt;" link="https://definicion.de/probabilidad-condicional/" linkTarget="_blank" id="h0Rh2DAsyCIrhIGQMmOX-47">
          <mxCell style="rounded=1;fillColor=#FFFF66;strokeColor=none;strokeWidth=3;shadow=0;html=1;fontColor=#FFFFFF;arcSize=34;" parent="1" vertex="1">
            <mxGeometry x="2099" y="1177.5" width="261" height="65" as="geometry" />
          </mxCell>
        </UserObject>
        <UserObject label="&lt;font color=&quot;#000000&quot;&gt;Ejercicio&lt;/font&gt;" link="https://www.youtube.com/watch?v=rN6IWbanhy0" linkTarget="_blank" id="h0Rh2DAsyCIrhIGQMmOX-48">
          <mxCell style="rounded=1;fillColor=#3333FF;strokeColor=none;strokeWidth=3;shadow=0;html=1;fontColor=#FFFFFF;" parent="1" vertex="1">
            <mxGeometry x="2164" y="1535" width="120" height="40" as="geometry" />
          </mxCell>
        </UserObject>
        <mxCell id="h0Rh2DAsyCIrhIGQMmOX-49" value="" style="edgeStyle=none;endArrow=none;strokeWidth=3;strokeColor=#64BBE2;html=1;rounded=0;" parent="1" source="h0Rh2DAsyCIrhIGQMmOX-4" target="h0Rh2DAsyCIrhIGQMmOX-47" edge="1">
          <mxGeometry x="19" y="765" width="100" height="100" as="geometry">
            <mxPoint x="19" y="865" as="sourcePoint" />
            <mxPoint x="119" y="765" as="targetPoint" />
          </mxGeometry>
        </mxCell>
        <mxCell id="h0Rh2DAsyCIrhIGQMmOX-50" value="Definición" style="edgeLabel;html=1;align=center;verticalAlign=middle;resizable=0;points=[];fontColor=#000000;" parent="h0Rh2DAsyCIrhIGQMmOX-49" vertex="1" connectable="0">
          <mxGeometry relative="1" as="geometry">
            <mxPoint x="-23" y="19" as="offset" />
          </mxGeometry>
        </mxCell>
        <mxCell id="h0Rh2DAsyCIrhIGQMmOX-51" value="" style="edgeStyle=none;endArrow=none;strokeWidth=3;strokeColor=#64BBE2;html=1;rounded=0;" parent="1" source="h0Rh2DAsyCIrhIGQMmOX-4" target="h0Rh2DAsyCIrhIGQMmOX-48" edge="1">
          <mxGeometry x="19" y="765" width="100" height="100" as="geometry">
            <mxPoint x="19" y="865" as="sourcePoint" />
            <mxPoint x="119" y="765" as="targetPoint" />
          </mxGeometry>
        </mxCell>
        <mxCell id="h0Rh2DAsyCIrhIGQMmOX-52" value="Ejemplifiquemos" style="edgeLabel;html=1;align=center;verticalAlign=middle;resizable=0;points=[];fontColor=#000000;" parent="h0Rh2DAsyCIrhIGQMmOX-51" vertex="1" connectable="0">
          <mxGeometry relative="1" as="geometry">
            <mxPoint x="-11" y="-6" as="offset" />
          </mxGeometry>
        </mxCell>
        <UserObject label="&lt;span style=&quot;font-family: sans-serif ; font-size: 14px&quot;&gt;&lt;font color=&quot;#000000&quot;&gt;Es una expresión que exhibe &lt;br&gt;la importancia y uso de &lt;br&gt;las probabilidades condicionales. &lt;br&gt;Es interesante para las ciencias en todas sus ramas, &lt;br&gt;ya que ayuda la inteligencia de la probabilidad &lt;br&gt;de aspectos causales una vez &lt;br&gt;observados sus efectos.&lt;/font&gt;&lt;/span&gt;" link="http://enciclopedia.us.es/index.php/Teorema_de_Bayes" linkTarget="_blank" id="h0Rh2DAsyCIrhIGQMmOX-53">
          <mxCell style="rounded=1;fillColor=#FFFF66;strokeColor=none;strokeWidth=3;shadow=0;html=1;fontColor=#FFFFFF;align=center;arcSize=34;" parent="1" vertex="1">
            <mxGeometry x="1880" y="1598.75" width="384" height="112.5" as="geometry" />
          </mxCell>
        </UserObject>
        <mxCell id="h0Rh2DAsyCIrhIGQMmOX-54" value="&lt;span style=&quot;font-family: sans-serif ; font-size: 14px&quot;&gt;P(A&lt;/span&gt;&lt;sub style=&quot;line-height: 1 ; font-family: sans-serif&quot;&gt;j&lt;/sub&gt;&lt;span style=&quot;font-family: sans-serif ; font-size: 14px&quot;&gt;|B) = {P(A&lt;/span&gt;&lt;sub style=&quot;line-height: 1 ; font-family: sans-serif&quot;&gt;j&lt;/sub&gt;&lt;span style=&quot;font-family: sans-serif ; font-size: 14px&quot;&gt;) P(B|A&lt;/span&gt;&lt;sub style=&quot;line-height: 1 ; font-family: sans-serif&quot;&gt;j&lt;/sub&gt;&lt;span style=&quot;font-family: sans-serif ; font-size: 14px&quot;&gt;)}÷ Σ&lt;/span&gt;&lt;sub style=&quot;line-height: 1 ; font-family: sans-serif&quot;&gt;j&lt;/sub&gt;&lt;span style=&quot;font-family: sans-serif ; font-size: 14px&quot;&gt;&amp;nbsp;P(A&lt;/span&gt;&lt;sub style=&quot;line-height: 1 ; font-family: sans-serif&quot;&gt;j&lt;/sub&gt;&lt;span style=&quot;font-family: sans-serif ; font-size: 14px&quot;&gt;)P(B|A&lt;/span&gt;&lt;sub style=&quot;line-height: 1 ; font-family: sans-serif&quot;&gt;j&lt;/sub&gt;&lt;span style=&quot;font-family: sans-serif ; font-size: 14px&quot;&gt;)&lt;/span&gt;" style="rounded=1;fillColor=#a29dc5;strokeColor=none;strokeWidth=3;shadow=0;html=1;fontColor=#FFFFFF;" parent="1" vertex="1">
          <mxGeometry x="1998" y="1780" width="286" height="40" as="geometry" />
        </mxCell>
        <UserObject label="&lt;font color=&quot;#000000&quot;&gt;Problemas (3)&lt;/font&gt;" link="https://es.slideshare.net/luiselipehernandez/ejemplos-del-teorema-de-bayes" linkTarget="_blank" id="h0Rh2DAsyCIrhIGQMmOX-55">
          <mxCell style="rounded=1;fillColor=#3333FF;strokeColor=none;strokeWidth=3;shadow=0;html=1;fontColor=#FFFFFF;arcSize=50;" parent="1" vertex="1">
            <mxGeometry x="2012" y="1957.5" width="120" height="40" as="geometry" />
          </mxCell>
        </UserObject>
        <mxCell id="h0Rh2DAsyCIrhIGQMmOX-56" value="" style="edgeStyle=none;endArrow=none;strokeWidth=3;strokeColor=#A29DC5;html=1;rounded=0;" parent="1" source="h0Rh2DAsyCIrhIGQMmOX-5" target="h0Rh2DAsyCIrhIGQMmOX-54" edge="1">
          <mxGeometry x="294" y="465" width="100" height="100" as="geometry">
            <mxPoint x="294" y="565" as="sourcePoint" />
            <mxPoint x="394" y="465" as="targetPoint" />
          </mxGeometry>
        </mxCell>
        <mxCell id="h0Rh2DAsyCIrhIGQMmOX-57" value="Formula" style="edgeLabel;html=1;align=center;verticalAlign=middle;resizable=0;points=[];fontColor=#000000;" parent="h0Rh2DAsyCIrhIGQMmOX-56" vertex="1" connectable="0">
          <mxGeometry relative="1" as="geometry">
            <mxPoint x="-19" y="-3" as="offset" />
          </mxGeometry>
        </mxCell>
        <mxCell id="h0Rh2DAsyCIrhIGQMmOX-58" value="" style="edgeStyle=none;endArrow=none;strokeWidth=3;strokeColor=#A29DC5;html=1;rounded=0;" parent="1" source="h0Rh2DAsyCIrhIGQMmOX-5" target="h0Rh2DAsyCIrhIGQMmOX-55" edge="1">
          <mxGeometry x="294" y="465" width="100" height="100" as="geometry">
            <mxPoint x="294" y="565" as="sourcePoint" />
            <mxPoint x="394" y="465" as="targetPoint" />
          </mxGeometry>
        </mxCell>
        <mxCell id="h0Rh2DAsyCIrhIGQMmOX-59" value="&lt;font color=&quot;#000000&quot;&gt;Lo podemos ver en:&lt;/font&gt;" style="edgeLabel;html=1;align=center;verticalAlign=middle;resizable=0;points=[];fontColor=#FFFFFF;" parent="h0Rh2DAsyCIrhIGQMmOX-58" vertex="1" connectable="0">
          <mxGeometry relative="1" as="geometry">
            <mxPoint x="22" y="18" as="offset" />
          </mxGeometry>
        </mxCell>
        <mxCell id="h0Rh2DAsyCIrhIGQMmOX-60" value="" style="edgeStyle=none;endArrow=none;strokeWidth=3;strokeColor=#F5AF58;html=1;rounded=0;entryX=0.5;entryY=0;entryDx=0;entryDy=0;" parent="1" source="h0Rh2DAsyCIrhIGQMmOX-6" target="h0Rh2DAsyCIrhIGQMmOX-62" edge="1">
          <mxGeometry x="286.5" y="607.5" width="100" height="100" as="geometry">
            <mxPoint x="286.5" y="707.5" as="sourcePoint" />
            <mxPoint x="1260" y="2220" as="targetPoint" />
            <Array as="points" />
          </mxGeometry>
        </mxCell>
        <mxCell id="h0Rh2DAsyCIrhIGQMmOX-61" value="Ejemplo" style="edgeLabel;html=1;align=center;verticalAlign=middle;resizable=0;points=[];fontColor=#000000;" parent="h0Rh2DAsyCIrhIGQMmOX-60" vertex="1" connectable="0">
          <mxGeometry relative="1" as="geometry">
            <mxPoint y="-1" as="offset" />
          </mxGeometry>
        </mxCell>
        <UserObject label="&lt;font color=&quot;#000000&quot;&gt;Probabilidad de un&lt;br&gt;evento sencillo&lt;/font&gt;" link="https://www.youtube.com/watch?v=xYco67hkECs" linkTarget="_blank" id="h0Rh2DAsyCIrhIGQMmOX-62">
          <mxCell style="rounded=1;fillColor=#0000FF;strokeColor=none;strokeWidth=3;shadow=0;html=1;fontColor=#FFFFFF;" parent="1" vertex="1">
            <mxGeometry x="1173.25" y="2120" width="120" height="40" as="geometry" />
          </mxCell>
        </UserObject>
        <mxCell id="h0Rh2DAsyCIrhIGQMmOX-63" value="Permutacion" style="rounded=1;fillColor=#f08e81;strokeColor=none;strokeWidth=3;shadow=0;html=1;fontColor=#FFFFFF;" parent="1" vertex="1">
          <mxGeometry x="281.5" y="1558.75" width="120" height="40" as="geometry" />
        </mxCell>
        <mxCell id="h0Rh2DAsyCIrhIGQMmOX-64" value="Multiplicacion" style="rounded=1;fillColor=#f08e81;strokeColor=none;strokeWidth=3;shadow=0;html=1;fontColor=#FFFFFF;" parent="1" vertex="1">
          <mxGeometry x="414" y="1500" width="120" height="40" as="geometry" />
        </mxCell>
        <mxCell id="h0Rh2DAsyCIrhIGQMmOX-65" value="Metodos" style="rounded=1;fillColor=#f08e81;strokeColor=none;strokeWidth=3;shadow=0;html=1;fontColor=#FFFFFF;" parent="1" vertex="1">
          <mxGeometry x="557.5" y="1610" width="120" height="40" as="geometry" />
        </mxCell>
        <UserObject label="&lt;span style=&quot;color: rgb(51 , 51 , 51) ; font-family: &amp;#34;tahoma&amp;#34; , &amp;#34;geneva&amp;#34; , &amp;#34;arial&amp;#34; , &amp;#34;helvetica&amp;#34; , sans-serif ; font-size: 16px ; text-align: justify&quot;&gt;En esta técnica de conteo&lt;br&gt;&amp;nbsp;se considera que existe &lt;br&gt;el orden en la muestra, pero no es posible &lt;br&gt;repetir ningún elemento de la población &lt;br&gt;en su conformación.&lt;/span&gt;" link="https://danacaweb.com/permutaciones.html" linkTarget="_blank" id="h0Rh2DAsyCIrhIGQMmOX-66">
          <mxCell style="rounded=1;fillColor=#3333FF;strokeColor=none;strokeWidth=3;shadow=0;html=1;fontColor=#FFFFFF;" parent="1" vertex="1">
            <mxGeometry x="-120" y="1519.38" width="305" height="118.75" as="geometry" />
          </mxCell>
        </UserObject>
        <UserObject label="&lt;span style=&quot;font-family: &amp;#34;tahoma&amp;#34; , &amp;#34;geneva&amp;#34; , &amp;#34;arial&amp;#34; , &amp;#34;helvetica&amp;#34; , sans-serif ; font-size: 16px ; text-align: justify&quot;&gt;&lt;font color=&quot;#000000&quot;&gt;Esto requiere el contar la cantidad &lt;br&gt;de elementos de conjuntos, &lt;br&gt;relacionarlos todos entre sí o&lt;br&gt;&amp;nbsp;formar subgrupos respondiendo a&lt;br&gt;&amp;nbsp;determinadas características.&lt;/font&gt;&lt;/span&gt;" link="https://danacaweb.com/tcnicas_de_conteo.html" linkTarget="_blank" id="h0Rh2DAsyCIrhIGQMmOX-67">
          <mxCell style="rounded=1;fillColor=#FFFF33;strokeColor=none;strokeWidth=3;shadow=0;html=1;fontColor=#FFFFFF;" parent="1" vertex="1">
            <mxGeometry x="239.13" y="1970" width="296.5" height="115" as="geometry" />
          </mxCell>
        </UserObject>
        <mxCell id="h0Rh2DAsyCIrhIGQMmOX-68" value="&lt;strong style=&quot;font-family: &amp;#34;tahoma&amp;#34; , &amp;#34;geneva&amp;#34; , &amp;#34;arial&amp;#34; , &amp;#34;helvetica&amp;#34; , sans-serif ; font-size: 13.3333px&quot;&gt;#(S)=N&lt;sub&gt;1&lt;/sub&gt;&amp;nbsp;x N&lt;sub&gt;2&lt;/sub&gt;&amp;nbsp;X ... X N&lt;sub&gt;r&lt;/sub&gt;&lt;/strong&gt;" style="rounded=1;fillColor=#f08e81;strokeColor=none;strokeWidth=3;shadow=0;html=1;fontColor=#FFFFFF;" parent="1" vertex="1">
          <mxGeometry x="90" y="1370" width="170" height="43.75" as="geometry" />
        </mxCell>
        <mxCell id="h0Rh2DAsyCIrhIGQMmOX-69" value="&lt;p style=&quot;margin: 1em 0px ; font-family: &amp;#34;tahoma&amp;#34; , &amp;#34;geneva&amp;#34; , &amp;#34;arial&amp;#34; , &amp;#34;helvetica&amp;#34; , sans-serif ; font-size: 16.8px ; text-align: left&quot;&gt;&lt;span style=&quot;font-size: 12pt&quot;&gt;&lt;img alt=&quot;&quot; src=&quot;https://danacaweb.com/eXe_LaTeX_math_6.gif&quot; width=&quot;112&quot; height=&quot;31&quot; style=&quot;max-width: 100% ; height: auto ; display: block ; margin-left: auto ; margin-right: auto&quot;&gt;&lt;/span&gt;&lt;/p&gt;&lt;p style=&quot;margin: 1em 0px ; font-family: &amp;#34;tahoma&amp;#34; , &amp;#34;geneva&amp;#34; , &amp;#34;arial&amp;#34; , &amp;#34;helvetica&amp;#34; , sans-serif ; font-size: 16.8px ; text-align: left&quot;&gt;&lt;span style=&quot;font-size: 12pt&quot;&gt;Donde, n! = n x (n - 1) x (n - 2) x ... x 2 x 1, y 0!=1&lt;/span&gt;&lt;/p&gt;" style="rounded=1;fillColor=#f08e81;strokeColor=none;strokeWidth=3;shadow=0;html=1;fontColor=#FFFFFF;" parent="1" vertex="1">
          <mxGeometry x="-660" y="1525.63" width="460" height="106.25" as="geometry" />
        </mxCell>
        <mxCell id="h0Rh2DAsyCIrhIGQMmOX-70" value="&lt;strong style=&quot;font-family: &amp;#34;tahoma&amp;#34; , &amp;#34;geneva&amp;#34; , &amp;#34;arial&amp;#34; , &amp;#34;helvetica&amp;#34; , sans-serif ; font-size: 13.3333px&quot;&gt;#(S)=N&lt;sup&gt;n&lt;/sup&gt;&lt;/strong&gt;" style="rounded=1;fillColor=#f08e81;strokeColor=none;strokeWidth=3;shadow=0;html=1;fontColor=#FFFFFF;" parent="1" vertex="1">
          <mxGeometry x="670" y="1373.75" width="120" height="40" as="geometry" />
        </mxCell>
        <mxCell id="h0Rh2DAsyCIrhIGQMmOX-71" value="" style="edgeStyle=none;endArrow=none;strokeWidth=3;strokeColor=#F08E81;html=1;rounded=0;exitX=1;exitY=0.5;exitDx=0;exitDy=0;entryX=0;entryY=0.5;entryDx=0;entryDy=0;" parent="1" source="h0Rh2DAsyCIrhIGQMmOX-110" target="h0Rh2DAsyCIrhIGQMmOX-70" edge="1">
          <mxGeometry x="231.5" y="620" width="100" height="100" as="geometry">
            <mxPoint x="231.5" y="720" as="sourcePoint" />
            <mxPoint x="670" y="1430" as="targetPoint" />
          </mxGeometry>
        </mxCell>
        <mxCell id="h0Rh2DAsyCIrhIGQMmOX-72" value="" style="edgeStyle=none;endArrow=none;strokeWidth=3;strokeColor=#F08E81;html=1;rounded=0;exitX=0;exitY=0.5;exitDx=0;exitDy=0;" parent="1" source="h0Rh2DAsyCIrhIGQMmOX-65" target="h0Rh2DAsyCIrhIGQMmOX-63" edge="1">
          <mxGeometry x="231.5" y="620" width="100" height="100" as="geometry">
            <mxPoint x="450" y="1690" as="sourcePoint" />
            <mxPoint x="331.5" y="620" as="targetPoint" />
          </mxGeometry>
        </mxCell>
        <mxCell id="h0Rh2DAsyCIrhIGQMmOX-73" value="" style="edgeStyle=none;endArrow=none;strokeWidth=3;strokeColor=#F08E81;html=1;rounded=0;exitX=0;exitY=0.5;exitDx=0;exitDy=0;" parent="1" source="h0Rh2DAsyCIrhIGQMmOX-65" target="h0Rh2DAsyCIrhIGQMmOX-64" edge="1">
          <mxGeometry x="231.5" y="620" width="100" height="100" as="geometry">
            <mxPoint x="231.5" y="720" as="sourcePoint" />
            <mxPoint x="331.5" y="620" as="targetPoint" />
          </mxGeometry>
        </mxCell>
        <mxCell id="h0Rh2DAsyCIrhIGQMmOX-74" value="" style="edgeStyle=none;endArrow=none;strokeWidth=3;strokeColor=#F08E81;html=1;rounded=0;" parent="1" source="h0Rh2DAsyCIrhIGQMmOX-7" target="h0Rh2DAsyCIrhIGQMmOX-65" edge="1">
          <mxGeometry x="231.5" y="620" width="100" height="100" as="geometry">
            <mxPoint x="231.5" y="720" as="sourcePoint" />
            <mxPoint x="331.5" y="620" as="targetPoint" />
          </mxGeometry>
        </mxCell>
        <mxCell id="h0Rh2DAsyCIrhIGQMmOX-75" value="" style="edgeStyle=none;endArrow=none;strokeWidth=3;strokeColor=#F08E81;html=1;rounded=0;exitX=0;exitY=0.5;exitDx=0;exitDy=0;entryX=1;entryY=0.5;entryDx=0;entryDy=0;" parent="1" source="h0Rh2DAsyCIrhIGQMmOX-63" target="h0Rh2DAsyCIrhIGQMmOX-66" edge="1">
          <mxGeometry x="231.5" y="620" width="100" height="100" as="geometry">
            <mxPoint x="231.5" y="720" as="sourcePoint" />
            <mxPoint x="331.5" y="620" as="targetPoint" />
          </mxGeometry>
        </mxCell>
        <mxCell id="h0Rh2DAsyCIrhIGQMmOX-76" value="" style="edgeStyle=none;endArrow=none;strokeWidth=3;strokeColor=#F08E81;html=1;rounded=0;" parent="1" source="h0Rh2DAsyCIrhIGQMmOX-7" target="h0Rh2DAsyCIrhIGQMmOX-67" edge="1">
          <mxGeometry x="231.5" y="620" width="100" height="100" as="geometry">
            <mxPoint x="231.5" y="720" as="sourcePoint" />
            <mxPoint x="331.5" y="620" as="targetPoint" />
          </mxGeometry>
        </mxCell>
        <mxCell id="h0Rh2DAsyCIrhIGQMmOX-77" value="" style="edgeStyle=none;endArrow=none;strokeWidth=3;strokeColor=#F08E81;html=1;rounded=0;exitX=0.5;exitY=0;exitDx=0;exitDy=0;" parent="1" source="h0Rh2DAsyCIrhIGQMmOX-64" target="h0Rh2DAsyCIrhIGQMmOX-110" edge="1">
          <mxGeometry x="231.5" y="620" width="100" height="100" as="geometry">
            <mxPoint x="231.5" y="720" as="sourcePoint" />
            <mxPoint x="331.5" y="620" as="targetPoint" />
          </mxGeometry>
        </mxCell>
        <mxCell id="h0Rh2DAsyCIrhIGQMmOX-78" value="" style="edgeStyle=none;endArrow=none;strokeWidth=3;strokeColor=#F08E81;html=1;rounded=0;exitX=0;exitY=0.5;exitDx=0;exitDy=0;" parent="1" source="h0Rh2DAsyCIrhIGQMmOX-110" target="h0Rh2DAsyCIrhIGQMmOX-68" edge="1">
          <mxGeometry x="231.5" y="620" width="100" height="100" as="geometry">
            <mxPoint x="231.5" y="720" as="sourcePoint" />
            <mxPoint x="331.5" y="620" as="targetPoint" />
          </mxGeometry>
        </mxCell>
        <mxCell id="h0Rh2DAsyCIrhIGQMmOX-79" value="" style="edgeStyle=none;endArrow=none;strokeWidth=3;strokeColor=#F08E81;html=1;rounded=0;exitX=0;exitY=0.5;exitDx=0;exitDy=0;entryX=1;entryY=0.5;entryDx=0;entryDy=0;" parent="1" source="h0Rh2DAsyCIrhIGQMmOX-66" target="h0Rh2DAsyCIrhIGQMmOX-69" edge="1">
          <mxGeometry x="-771" y="440.62" width="100" height="100" as="geometry">
            <mxPoint x="-970.0000000000002" y="1340" as="sourcePoint" />
            <mxPoint x="20" y="1720" as="targetPoint" />
          </mxGeometry>
        </mxCell>
        <mxCell id="h0Rh2DAsyCIrhIGQMmOX-80" style="edgeStyle=orthogonalEdgeStyle;rounded=0;html=1;exitX=0.75;exitY=0;entryX=0.75;entryY=0;startArrow=none;startFill=0;endArrow=block;endFill=1;jettySize=auto;orthogonalLoop=1;strokeColor=#12aab5;strokeWidth=6;fontSize=20;fontColor=#2F5B7C;" parent="1" edge="1">
          <mxGeometry relative="1" as="geometry">
            <mxPoint x="1654" y="940" as="sourcePoint" />
            <mxPoint x="1654" y="940" as="targetPoint" />
          </mxGeometry>
        </mxCell>
        <mxCell id="h0Rh2DAsyCIrhIGQMmOX-81" value="&lt;font style=&quot;vertical-align: inherit&quot;&gt;&lt;font style=&quot;vertical-align: inherit&quot;&gt;PROBABILIDAD&lt;/font&gt;&lt;/font&gt;" style="ellipse;whiteSpace=wrap;html=1;shadow=0;fontFamily=Helvetica;fontSize=30;fontColor=#2F5B7C;align=center;strokeColor=#2F5B7C;strokeWidth=6;fillColor=#FFFFFF;fontStyle=1;gradientColor=none;" parent="1" vertex="1">
          <mxGeometry x="988.25" y="1220" width="490" height="355" as="geometry" />
        </mxCell>
        <mxCell id="h0Rh2DAsyCIrhIGQMmOX-82" value="&lt;font style=&quot;vertical-align: inherit&quot;&gt;&lt;font style=&quot;vertical-align: inherit&quot;&gt;&lt;font style=&quot;vertical-align: inherit&quot;&gt;&lt;font style=&quot;vertical-align: inherit&quot;&gt;Axiomas&lt;/font&gt;&lt;/font&gt;&lt;/font&gt;&lt;/font&gt;" style="ellipse;whiteSpace=wrap;html=1;shadow=0;fontFamily=Helvetica;fontSize=20;fontColor=#FFFFFF;align=center;strokeWidth=3;fillColor=#736ca8;strokeColor=none;" parent="1" vertex="1">
          <mxGeometry x="230" y="1122.5" width="120" height="120" as="geometry" />
        </mxCell>
        <mxCell id="h0Rh2DAsyCIrhIGQMmOX-83" value="Organisation" style="rounded=1;fillColor=#a29dc5;strokeColor=none;strokeWidth=3;shadow=0;html=1;fontColor=#FFFFFF;" parent="1" vertex="1">
          <mxGeometry x="245" y="1190" width="120" height="40" as="geometry" />
        </mxCell>
        <mxCell id="h0Rh2DAsyCIrhIGQMmOX-84" value="Oak" style="rounded=1;fillColor=#a29dc5;strokeColor=none;strokeWidth=3;shadow=0;html=1;fontColor=#FFFFFF;" parent="1" vertex="1">
          <mxGeometry x="352.5" y="1130" width="120" height="40" as="geometry" />
        </mxCell>
        <mxCell id="h0Rh2DAsyCIrhIGQMmOX-85" value="Birch" style="rounded=1;fillColor=#a29dc5;strokeColor=none;strokeWidth=3;shadow=0;html=1;fontColor=#FFFFFF;" parent="1" vertex="1">
          <mxGeometry x="492.5" y="1140" width="120" height="40" as="geometry" />
        </mxCell>
        <mxCell id="h0Rh2DAsyCIrhIGQMmOX-86" value="Silverfern" style="rounded=1;fillColor=#a29dc5;strokeColor=none;strokeWidth=3;shadow=0;html=1;fontColor=#FFFFFF;" parent="1" vertex="1">
          <mxGeometry x="557.5" y="1210" width="120" height="40" as="geometry" />
        </mxCell>
        <mxCell id="h0Rh2DAsyCIrhIGQMmOX-87" value="Personal &#xa;Development" style="rounded=1;fillColor=#a29dc5;strokeColor=none;strokeWidth=3;shadow=0;html=1;fontColor=#FFFFFF;" parent="1" vertex="1">
          <mxGeometry x="582.5" y="1290" width="120" height="40" as="geometry" />
        </mxCell>
        <mxCell id="h0Rh2DAsyCIrhIGQMmOX-88" value="Pine" style="rounded=1;fillColor=#a29dc5;strokeColor=none;strokeWidth=3;shadow=0;html=1;fontColor=#FFFFFF;" parent="1" vertex="1">
          <mxGeometry x="110" y="1210" width="120" height="40" as="geometry" />
        </mxCell>
        <mxCell id="h0Rh2DAsyCIrhIGQMmOX-89" value="Lime" style="rounded=1;fillColor=#a29dc5;strokeColor=none;strokeWidth=3;shadow=0;html=1;fontColor=#FFFFFF;" parent="1" vertex="1">
          <mxGeometry x="515" y="1400" width="120" height="40" as="geometry" />
        </mxCell>
        <mxCell id="h0Rh2DAsyCIrhIGQMmOX-90" value="Chestnut" style="rounded=1;fillColor=#a29dc5;strokeColor=none;strokeWidth=3;shadow=0;html=1;fontColor=#FFFFFF;" parent="1" vertex="1">
          <mxGeometry x="465" y="1460" width="120" height="40" as="geometry" />
        </mxCell>
        <mxCell id="h0Rh2DAsyCIrhIGQMmOX-91" value="Beech" style="rounded=1;fillColor=#a29dc5;strokeColor=none;strokeWidth=3;shadow=0;html=1;fontColor=#FFFFFF;" parent="1" vertex="1">
          <mxGeometry x="325" y="1460" width="120" height="40" as="geometry" />
        </mxCell>
        <mxCell id="h0Rh2DAsyCIrhIGQMmOX-92" value="Poplar" style="rounded=1;fillColor=#a29dc5;strokeColor=none;strokeWidth=3;shadow=0;html=1;fontColor=#FFFFFF;" parent="1" vertex="1">
          <mxGeometry x="185" y="1425" width="120" height="40" as="geometry" />
        </mxCell>
        <mxCell id="h0Rh2DAsyCIrhIGQMmOX-93" value="Willow" style="rounded=1;fillColor=#a29dc5;strokeColor=none;strokeWidth=3;shadow=0;html=1;fontColor=#FFFFFF;" parent="1" vertex="1">
          <mxGeometry x="40" y="1320" width="120" height="40" as="geometry" />
        </mxCell>
        <mxCell id="h0Rh2DAsyCIrhIGQMmOX-94" value="" style="edgeStyle=none;endArrow=none;strokeWidth=3;strokeColor=#A29DC5;html=1;rounded=0;" parent="1" source="h0Rh2DAsyCIrhIGQMmOX-82" target="h0Rh2DAsyCIrhIGQMmOX-83" edge="1">
          <mxGeometry x="-1455" y="265" width="100" height="100" as="geometry">
            <mxPoint x="-1455" y="365" as="sourcePoint" />
            <mxPoint x="-1355" y="265" as="targetPoint" />
          </mxGeometry>
        </mxCell>
        <mxCell id="h0Rh2DAsyCIrhIGQMmOX-95" value="Acacia" style="rounded=1;fillColor=#a29dc5;strokeColor=none;strokeWidth=3;shadow=0;html=1;fontColor=#FFFFFF;" parent="1" vertex="1">
          <mxGeometry x="120" y="1300" width="120" height="40" as="geometry" />
        </mxCell>
        <mxCell id="h0Rh2DAsyCIrhIGQMmOX-96" value="" style="edgeStyle=none;endArrow=none;strokeWidth=3;strokeColor=#A29DC5;html=1;rounded=0;" parent="1" source="h0Rh2DAsyCIrhIGQMmOX-82" target="h0Rh2DAsyCIrhIGQMmOX-84" edge="1">
          <mxGeometry x="-1455" y="265" width="100" height="100" as="geometry">
            <mxPoint x="-1455" y="365" as="sourcePoint" />
            <mxPoint x="-1355" y="265" as="targetPoint" />
          </mxGeometry>
        </mxCell>
        <mxCell id="h0Rh2DAsyCIrhIGQMmOX-97" value="" style="edgeStyle=none;endArrow=none;strokeWidth=3;strokeColor=#A29DC5;html=1;rounded=0;" parent="1" source="h0Rh2DAsyCIrhIGQMmOX-82" target="h0Rh2DAsyCIrhIGQMmOX-85" edge="1">
          <mxGeometry x="-1455" y="265" width="100" height="100" as="geometry">
            <mxPoint x="-1455" y="365" as="sourcePoint" />
            <mxPoint x="-1355" y="265" as="targetPoint" />
          </mxGeometry>
        </mxCell>
        <mxCell id="h0Rh2DAsyCIrhIGQMmOX-98" value="" style="edgeStyle=none;endArrow=none;strokeWidth=3;strokeColor=#A29DC5;html=1;rounded=0;" parent="1" source="h0Rh2DAsyCIrhIGQMmOX-82" target="h0Rh2DAsyCIrhIGQMmOX-86" edge="1">
          <mxGeometry x="-1455" y="265" width="100" height="100" as="geometry">
            <mxPoint x="-1455" y="365" as="sourcePoint" />
            <mxPoint x="-1355" y="265" as="targetPoint" />
          </mxGeometry>
        </mxCell>
        <mxCell id="h0Rh2DAsyCIrhIGQMmOX-99" value="" style="edgeStyle=none;endArrow=none;strokeWidth=3;strokeColor=#A29DC5;html=1;rounded=0;" parent="1" source="h0Rh2DAsyCIrhIGQMmOX-82" target="h0Rh2DAsyCIrhIGQMmOX-87" edge="1">
          <mxGeometry x="-1455" y="265" width="100" height="100" as="geometry">
            <mxPoint x="-1455" y="365" as="sourcePoint" />
            <mxPoint x="-1355" y="265" as="targetPoint" />
          </mxGeometry>
        </mxCell>
        <mxCell id="h0Rh2DAsyCIrhIGQMmOX-100" value="" style="edgeStyle=none;endArrow=none;strokeWidth=3;strokeColor=#A29DC5;html=1;rounded=0;" parent="1" source="h0Rh2DAsyCIrhIGQMmOX-82" target="h0Rh2DAsyCIrhIGQMmOX-88" edge="1">
          <mxGeometry x="-1455" y="265" width="100" height="100" as="geometry">
            <mxPoint x="-1455" y="365" as="sourcePoint" />
            <mxPoint x="-1355" y="265" as="targetPoint" />
          </mxGeometry>
        </mxCell>
        <mxCell id="h0Rh2DAsyCIrhIGQMmOX-101" value="" style="edgeStyle=none;endArrow=none;strokeWidth=3;strokeColor=#A29DC5;html=1;rounded=0;startArrow=none;" parent="1" source="h0Rh2DAsyCIrhIGQMmOX-110" target="h0Rh2DAsyCIrhIGQMmOX-89" edge="1">
          <mxGeometry x="-1455" y="265" width="100" height="100" as="geometry">
            <mxPoint x="-1455" y="365" as="sourcePoint" />
            <mxPoint x="-1355" y="265" as="targetPoint" />
          </mxGeometry>
        </mxCell>
        <mxCell id="h0Rh2DAsyCIrhIGQMmOX-102" value="" style="edgeStyle=none;endArrow=none;strokeWidth=3;strokeColor=#A29DC5;html=1;rounded=0;" parent="1" source="h0Rh2DAsyCIrhIGQMmOX-82" target="h0Rh2DAsyCIrhIGQMmOX-90" edge="1">
          <mxGeometry x="-1455" y="265" width="100" height="100" as="geometry">
            <mxPoint x="-1455" y="365" as="sourcePoint" />
            <mxPoint x="-1355" y="265" as="targetPoint" />
          </mxGeometry>
        </mxCell>
        <mxCell id="h0Rh2DAsyCIrhIGQMmOX-103" value="" style="edgeStyle=none;endArrow=none;strokeWidth=3;strokeColor=#A29DC5;html=1;rounded=0;" parent="1" source="h0Rh2DAsyCIrhIGQMmOX-82" target="h0Rh2DAsyCIrhIGQMmOX-91" edge="1">
          <mxGeometry x="-1455" y="265" width="100" height="100" as="geometry">
            <mxPoint x="-1455" y="365" as="sourcePoint" />
            <mxPoint x="-1355" y="265" as="targetPoint" />
          </mxGeometry>
        </mxCell>
        <mxCell id="h0Rh2DAsyCIrhIGQMmOX-104" value="" style="edgeStyle=none;endArrow=none;strokeWidth=3;strokeColor=#A29DC5;html=1;rounded=0;" parent="1" source="h0Rh2DAsyCIrhIGQMmOX-82" target="h0Rh2DAsyCIrhIGQMmOX-92" edge="1">
          <mxGeometry x="-1455" y="265" width="100" height="100" as="geometry">
            <mxPoint x="-1455" y="365" as="sourcePoint" />
            <mxPoint x="-1355" y="265" as="targetPoint" />
          </mxGeometry>
        </mxCell>
        <mxCell id="h0Rh2DAsyCIrhIGQMmOX-105" value="" style="edgeStyle=none;endArrow=none;strokeWidth=3;strokeColor=#A29DC5;html=1;rounded=0;" parent="1" source="h0Rh2DAsyCIrhIGQMmOX-82" target="h0Rh2DAsyCIrhIGQMmOX-93" edge="1">
          <mxGeometry x="-1455" y="265" width="100" height="100" as="geometry">
            <mxPoint x="-1455" y="365" as="sourcePoint" />
            <mxPoint x="-1355" y="265" as="targetPoint" />
          </mxGeometry>
        </mxCell>
        <mxCell id="h0Rh2DAsyCIrhIGQMmOX-106" value="" style="edgeStyle=none;endArrow=none;strokeWidth=3;strokeColor=#A29DC5;html=1;rounded=0;" parent="1" source="h0Rh2DAsyCIrhIGQMmOX-82" target="h0Rh2DAsyCIrhIGQMmOX-95" edge="1">
          <mxGeometry x="-1455" y="265" width="100" height="100" as="geometry">
            <mxPoint x="-1455" y="365" as="sourcePoint" />
            <mxPoint x="-1355" y="265" as="targetPoint" />
          </mxGeometry>
        </mxCell>
        <mxCell id="h0Rh2DAsyCIrhIGQMmOX-107" value="" style="edgeStyle=none;endArrow=none;strokeWidth=3;strokeColor=#A29DC5;html=1;rounded=0;entryX=0.5;entryY=1;entryDx=0;entryDy=0;" parent="1" source="h0Rh2DAsyCIrhIGQMmOX-5" target="h0Rh2DAsyCIrhIGQMmOX-53" edge="1">
          <mxGeometry x="-1131" y="160" width="100" height="100" as="geometry">
            <mxPoint x="-1131" y="260" as="sourcePoint" />
            <mxPoint x="-1031" y="160" as="targetPoint" />
          </mxGeometry>
        </mxCell>
        <mxCell id="h0Rh2DAsyCIrhIGQMmOX-108" value="¿De que hablamos?" style="edgeLabel;html=1;align=center;verticalAlign=middle;resizable=0;points=[];fontColor=#000000;" parent="h0Rh2DAsyCIrhIGQMmOX-107" vertex="1" connectable="0">
          <mxGeometry relative="1" as="geometry">
            <mxPoint x="-56" y="18" as="offset" />
          </mxGeometry>
        </mxCell>
        <mxCell id="h0Rh2DAsyCIrhIGQMmOX-109" style="edgeStyle=none;rounded=0;html=1;exitX=0.5;exitY=1;endArrow=none;endFill=0;jettySize=auto;orthogonalLoop=1;strokeColor=#736CA8;strokeWidth=2;fillColor=#64bbe2;fontSize=20;fontColor=#23445D;" parent="1" source="h0Rh2DAsyCIrhIGQMmOX-95" target="h0Rh2DAsyCIrhIGQMmOX-95" edge="1">
          <mxGeometry relative="1" as="geometry" />
        </mxCell>
        <UserObject label="&lt;span style=&quot;font-family: &amp;#34;tahoma&amp;#34; , &amp;#34;geneva&amp;#34; , &amp;#34;arial&amp;#34; , &amp;#34;helvetica&amp;#34; , sans-serif ; font-size: 16px ; text-align: left&quot;&gt;&lt;font color=&quot;#000000&quot;&gt;Permite encontrar el número &lt;br&gt;de elementos del espacio muestral&lt;br&gt;&amp;nbsp;en aquellos experimentos aleatorios &lt;br&gt;en los cuales el orden es relevante y&lt;br&gt;&amp;nbsp;puede haber repetición.&lt;/font&gt;&lt;/span&gt;" link="https://danacaweb.com/principio_de_multiplicacin.html" linkTarget="_blank" id="h0Rh2DAsyCIrhIGQMmOX-110">
          <mxCell style="rounded=1;fillColor=#3333FF;strokeColor=none;strokeWidth=3;shadow=0;html=1;fontColor=#FFFFFF;" parent="1" vertex="1">
            <mxGeometry x="328.25" y="1340" width="291.5" height="107.5" as="geometry" />
          </mxCell>
        </UserObject>
        <mxCell id="h0Rh2DAsyCIrhIGQMmOX-111" value="" style="edgeStyle=none;endArrow=none;strokeWidth=3;strokeColor=#A29DC5;html=1;rounded=0;" parent="1" source="h0Rh2DAsyCIrhIGQMmOX-82" target="h0Rh2DAsyCIrhIGQMmOX-110" edge="1">
          <mxGeometry x="-1455" y="265" width="100" height="100" as="geometry">
            <mxPoint x="469.94729252763545" y="1374.0996897051032" as="sourcePoint" />
            <mxPoint x="529.2857142857142" y="1400" as="targetPoint" />
          </mxGeometry>
        </mxCell>
        <mxCell id="h0Rh2DAsyCIrhIGQMmOX-112" value="" style="endArrow=none;strokeWidth=6;strokeColor=#736CA8;html=1;rounded=0;" parent="1" source="h0Rh2DAsyCIrhIGQMmOX-81" edge="1">
          <mxGeometry relative="1" as="geometry">
            <mxPoint x="999.4919126316629" y="1344.3491226685117" as="sourcePoint" />
            <mxPoint x="856.8748580474439" y="1312.7410190083192" as="targetPoint" />
          </mxGeometry>
        </mxCell>
        <mxCell id="h0Rh2DAsyCIrhIGQMmOX-113" value="&lt;font color=&quot;#b5739d&quot;&gt;N elementos&amp;nbsp;&lt;br&gt;n muestra&lt;/font&gt;" style="whiteSpace=wrap;html=1;shape=mxgraph.basic.cloud_callout;shadow=1;labelBackgroundColor=none;fontColor=#FFFFFF;strokeColor=#FFFFFF;fillColor=#33FFFF;" parent="1" vertex="1">
          <mxGeometry x="756.5" y="1280" width="133.5" height="95" as="geometry" />
        </mxCell>
        <mxCell id="h0Rh2DAsyCIrhIGQMmOX-114" value="&lt;font color=&quot;#b5739d&quot;&gt;N poblaciones&amp;nbsp;&lt;br&gt;distintas&lt;/font&gt;" style="whiteSpace=wrap;html=1;shape=mxgraph.basic.cloud_callout;shadow=1;labelBackgroundColor=none;fontColor=#FFFFFF;strokeColor=#FFFFFF;fillColor=#00FFFF;direction=east;" parent="1" vertex="1">
          <mxGeometry x="239.13" y="1280" width="120.87" height="90" as="geometry" />
        </mxCell>
        <mxCell id="h0Rh2DAsyCIrhIGQMmOX-115" value="&lt;font color=&quot;#b5739d&quot;&gt;Población N&lt;br&gt;Muestra n&lt;br&gt;&lt;br&gt;&lt;br&gt;&lt;br&gt;&lt;/font&gt;" style="whiteSpace=wrap;html=1;shape=mxgraph.basic.cloud_callout;shadow=1;labelBackgroundColor=none;fontColor=#FFFFFF;strokeColor=#FFFFFF;fillColor=#33FFFF;" parent="1" vertex="1">
          <mxGeometry x="-320" y="1420" width="160" height="105.63" as="geometry" />
        </mxCell>
        <mxCell id="h0Rh2DAsyCIrhIGQMmOX-116" value="&lt;font style=&quot;vertical-align: inherit&quot;&gt;&lt;font style=&quot;vertical-align: inherit&quot;&gt;Tipos&lt;/font&gt;&lt;/font&gt;" style="ellipse;whiteSpace=wrap;html=1;shadow=0;fontFamily=Helvetica;fontSize=20;fontColor=#FFFFFF;align=center;strokeWidth=3;fillColor=#1699D3;strokeColor=none;" parent="1" vertex="1">
          <mxGeometry x="566.5" y="840" width="120" height="120" as="geometry" />
        </mxCell>
        <mxCell id="h0Rh2DAsyCIrhIGQMmOX-117" value="&lt;font style=&quot;vertical-align: inherit&quot;&gt;&lt;font style=&quot;vertical-align: inherit&quot;&gt;&lt;font style=&quot;vertical-align: inherit&quot;&gt;&lt;font style=&quot;vertical-align: inherit&quot;&gt;Conceptualizacion&lt;/font&gt;&lt;/font&gt;&lt;/font&gt;&lt;/font&gt;" style="ellipse;whiteSpace=wrap;html=1;shadow=0;fontFamily=Helvetica;fontSize=20;fontColor=#FFFFFF;align=center;strokeWidth=3;fillColor=#F08705;strokeColor=none;gradientColor=none;" parent="1" vertex="1">
          <mxGeometry x="1146.5" y="800" width="173.5" height="150" as="geometry" />
        </mxCell>
        <mxCell id="h0Rh2DAsyCIrhIGQMmOX-118" value="&lt;font style=&quot;vertical-align: inherit&quot;&gt;&lt;font style=&quot;vertical-align: inherit&quot;&gt;Teoria de conjuntos&lt;/font&gt;&lt;/font&gt;" style="ellipse;whiteSpace=wrap;html=1;shadow=1;fontFamily=Helvetica;fontSize=20;fontColor=#FFFFFF;align=center;strokeWidth=3;fillColor=#E85642;strokeColor=none;" parent="1" vertex="1">
          <mxGeometry x="1744" y="925" width="120" height="120" as="geometry" />
        </mxCell>
        <mxCell id="h0Rh2DAsyCIrhIGQMmOX-119" value="&lt;font style=&quot;vertical-align: inherit&quot;&gt;&lt;font style=&quot;vertical-align: inherit&quot;&gt;Probabilidad condicional&lt;/font&gt;&lt;/font&gt;" style="ellipse;whiteSpace=wrap;html=1;shadow=0;fontFamily=Helvetica;fontSize=20;fontColor=#FFFFFF;align=center;strokeWidth=3;fillColor=#1699D3;strokeColor=none;" parent="1" vertex="1">
          <mxGeometry x="1979" y="1375" width="120" height="120" as="geometry" />
        </mxCell>
        <mxCell id="h0Rh2DAsyCIrhIGQMmOX-120" value="&lt;font style=&quot;vertical-align: inherit&quot;&gt;&lt;font style=&quot;vertical-align: inherit&quot;&gt;Teorema de Bayes&lt;/font&gt;&lt;/font&gt;" style="ellipse;whiteSpace=wrap;html=1;shadow=0;fontFamily=Helvetica;fontSize=20;fontColor=#FFFFFF;align=center;strokeWidth=3;fillColor=#736ca8;strokeColor=none;" parent="1" vertex="1">
          <mxGeometry x="1754" y="1740" width="120" height="120" as="geometry" />
        </mxCell>
        <mxCell id="h0Rh2DAsyCIrhIGQMmOX-121" value="&lt;font style=&quot;vertical-align: inherit&quot;&gt;&lt;font style=&quot;vertical-align: inherit&quot;&gt;La probabilidad es un metodo por el cual se obtiene la frecuencia de un acontecimiento determindado mediante la realizacion de un experimento aleatorio, del que se conocen todos los resultados posibles, bajo condiciones suficientemente estables&lt;/font&gt;&lt;/font&gt;" style="ellipse;whiteSpace=wrap;html=1;shadow=0;fontFamily=Helvetica;fontSize=20;fontColor=#FFFFFF;align=center;strokeWidth=3;fillColor=#F08705;strokeColor=none;" parent="1" vertex="1">
          <mxGeometry x="1015.62" y="1692.5" width="435.25" height="330" as="geometry" />
        </mxCell>
        <mxCell id="h0Rh2DAsyCIrhIGQMmOX-122" value="&lt;font style=&quot;vertical-align: inherit&quot;&gt;&lt;font style=&quot;vertical-align: inherit&quot;&gt;&lt;font style=&quot;vertical-align: inherit&quot;&gt;&lt;font style=&quot;vertical-align: inherit&quot;&gt;Tecnicas de conteo&lt;/font&gt;&lt;/font&gt;&lt;/font&gt;&lt;/font&gt;" style="ellipse;whiteSpace=wrap;html=1;shadow=0;fontFamily=Helvetica;fontSize=20;fontColor=#FFFFFF;align=center;strokeWidth=3;fillColor=#E85642;strokeColor=none;" parent="1" vertex="1">
          <mxGeometry x="601.5" y="1740" width="120" height="120" as="geometry" />
        </mxCell>
        <mxCell id="h0Rh2DAsyCIrhIGQMmOX-123" value="Dolphin" style="rounded=1;fillColor=#64BBE2;strokeColor=none;strokeWidth=3;shadow=0;html=1;fontColor=#FFFFFF;" parent="1" vertex="1">
          <mxGeometry x="391.5" y="985" width="130" height="40" as="geometry" />
        </mxCell>
        <mxCell id="h0Rh2DAsyCIrhIGQMmOX-124" style="endArrow=none;strokeWidth=6;strokeColor=#1699D3;html=1;rounded=0;" parent="1" source="h0Rh2DAsyCIrhIGQMmOX-203" target="h0Rh2DAsyCIrhIGQMmOX-116" edge="1">
          <mxGeometry relative="1" as="geometry" />
        </mxCell>
        <mxCell id="h0Rh2DAsyCIrhIGQMmOX-125" style="endArrow=none;strokeWidth=6;strokeColor=#f08705;html=1;rounded=0;exitX=0.5;exitY=0;exitDx=0;exitDy=0;" parent="1" source="h0Rh2DAsyCIrhIGQMmOX-203" target="h0Rh2DAsyCIrhIGQMmOX-117" edge="1">
          <mxGeometry relative="1" as="geometry">
            <mxPoint x="1250.25" y="1195" as="sourcePoint" />
          </mxGeometry>
        </mxCell>
        <mxCell id="h0Rh2DAsyCIrhIGQMmOX-126" style="endArrow=none;strokeWidth=6;strokeColor=#E85642;html=1;rounded=0;" parent="1" source="h0Rh2DAsyCIrhIGQMmOX-203" target="h0Rh2DAsyCIrhIGQMmOX-118" edge="1">
          <mxGeometry relative="1" as="geometry" />
        </mxCell>
        <mxCell id="h0Rh2DAsyCIrhIGQMmOX-127" style="endArrow=none;strokeWidth=6;strokeColor=#1699D3;html=1;rounded=0;" parent="1" source="h0Rh2DAsyCIrhIGQMmOX-203" target="h0Rh2DAsyCIrhIGQMmOX-119" edge="1">
          <mxGeometry relative="1" as="geometry" />
        </mxCell>
        <mxCell id="h0Rh2DAsyCIrhIGQMmOX-128" style="endArrow=none;strokeWidth=6;strokeColor=#736CA8;html=1;rounded=0;startArrow=none;" parent="1" target="h0Rh2DAsyCIrhIGQMmOX-204" edge="1">
          <mxGeometry relative="1" as="geometry">
            <mxPoint x="743.2963526942958" y="1286.9242143685296" as="sourcePoint" />
          </mxGeometry>
        </mxCell>
        <mxCell id="h0Rh2DAsyCIrhIGQMmOX-129" style="endArrow=none;strokeWidth=6;strokeColor=#736ca8;html=1;rounded=0;" parent="1" source="h0Rh2DAsyCIrhIGQMmOX-203" target="h0Rh2DAsyCIrhIGQMmOX-120" edge="1">
          <mxGeometry relative="1" as="geometry" />
        </mxCell>
        <mxCell id="h0Rh2DAsyCIrhIGQMmOX-130" value="" style="edgeStyle=none;endArrow=none;strokeWidth=6;strokeColor=#F08705;html=1;rounded=0;" parent="1" source="h0Rh2DAsyCIrhIGQMmOX-203" target="h0Rh2DAsyCIrhIGQMmOX-121" edge="1">
          <mxGeometry x="224" y="795" width="100" height="100" as="geometry">
            <mxPoint x="224" y="895" as="sourcePoint" />
            <mxPoint x="324" y="795" as="targetPoint" />
          </mxGeometry>
        </mxCell>
        <mxCell id="h0Rh2DAsyCIrhIGQMmOX-131" value="" style="edgeStyle=none;endArrow=none;strokeWidth=6;strokeColor=#E85642;html=1;rounded=0;" parent="1" source="h0Rh2DAsyCIrhIGQMmOX-203" target="h0Rh2DAsyCIrhIGQMmOX-122" edge="1">
          <mxGeometry x="224" y="795" width="100" height="100" as="geometry">
            <mxPoint x="224" y="895" as="sourcePoint" />
            <mxPoint x="324" y="795" as="targetPoint" />
          </mxGeometry>
        </mxCell>
        <mxCell id="h0Rh2DAsyCIrhIGQMmOX-132" value="Lion" style="rounded=1;fillColor=#64BBE2;strokeColor=none;strokeWidth=3;shadow=0;html=1;fontColor=#FFFFFF;" parent="1" vertex="1">
          <mxGeometry x="461.5" y="1035" width="130" height="40" as="geometry" />
        </mxCell>
        <mxCell id="h0Rh2DAsyCIrhIGQMmOX-133" value="Elephant" style="rounded=1;fillColor=#64BBE2;strokeColor=none;strokeWidth=3;shadow=0;html=1;fontColor=#FFFFFF;" parent="1" vertex="1">
          <mxGeometry x="361.5" y="915" width="130" height="40" as="geometry" />
        </mxCell>
        <mxCell id="h0Rh2DAsyCIrhIGQMmOX-134" value="Cat" style="rounded=1;fillColor=#64BBE2;strokeColor=none;strokeWidth=3;shadow=0;html=1;fontColor=#FFFFFF;" parent="1" vertex="1">
          <mxGeometry x="361.5" y="840" width="130" height="40" as="geometry" />
        </mxCell>
        <mxCell id="h0Rh2DAsyCIrhIGQMmOX-135" value="Giraffe" style="rounded=1;fillColor=#64BBE2;strokeColor=none;strokeWidth=3;shadow=0;html=1;fontColor=#FFFFFF;" parent="1" vertex="1">
          <mxGeometry x="401.5" y="775" width="130" height="40" as="geometry" />
        </mxCell>
        <mxCell id="h0Rh2DAsyCIrhIGQMmOX-136" value="Dog" style="rounded=1;fillColor=#64BBE2;strokeColor=none;strokeWidth=3;shadow=0;html=1;fontColor=#FFFFFF;" parent="1" vertex="1">
          <mxGeometry x="451.5" y="715" width="130" height="40" as="geometry" />
        </mxCell>
        <mxCell id="h0Rh2DAsyCIrhIGQMmOX-137" value="Donkey" style="rounded=1;fillColor=#64BBE2;strokeColor=none;strokeWidth=3;shadow=0;html=1;fontColor=#FFFFFF;" parent="1" vertex="1">
          <mxGeometry x="531.5" y="655" width="130" height="40" as="geometry" />
        </mxCell>
        <mxCell id="h0Rh2DAsyCIrhIGQMmOX-138" value="Leopard" style="rounded=1;fillColor=#64BBE2;strokeColor=none;strokeWidth=3;shadow=0;html=1;fontColor=#FFFFFF;" parent="1" vertex="1">
          <mxGeometry x="651.5" y="715" width="130" height="40" as="geometry" />
        </mxCell>
        <mxCell id="h0Rh2DAsyCIrhIGQMmOX-139" value="Horse" style="rounded=1;fillColor=#64BBE2;strokeColor=none;strokeWidth=3;shadow=0;html=1;fontColor=#FFFFFF;" parent="1" vertex="1">
          <mxGeometry x="706.5" y="775" width="130" height="40" as="geometry" />
        </mxCell>
        <mxCell id="h0Rh2DAsyCIrhIGQMmOX-140" value="Zebra" style="rounded=1;fillColor=#64BBE2;strokeColor=none;strokeWidth=3;shadow=0;html=1;fontColor=#FFFFFF;" parent="1" vertex="1">
          <mxGeometry x="741.5" y="835" width="130" height="40" as="geometry" />
        </mxCell>
        <mxCell id="h0Rh2DAsyCIrhIGQMmOX-141" value="Gazelle" style="rounded=1;fillColor=#64BBE2;strokeColor=none;strokeWidth=3;shadow=0;html=1;fontColor=#FFFFFF;" parent="1" vertex="1">
          <mxGeometry x="756.5" y="915" width="130" height="40" as="geometry" />
        </mxCell>
        <mxCell id="h0Rh2DAsyCIrhIGQMmOX-142" value="" style="edgeStyle=none;endArrow=none;strokeWidth=3;strokeColor=#64BBE2;html=1;rounded=0;" parent="1" source="h0Rh2DAsyCIrhIGQMmOX-116" target="h0Rh2DAsyCIrhIGQMmOX-141" edge="1">
          <mxGeometry x="-178.5" y="625" width="100" height="100" as="geometry">
            <mxPoint x="-178.5" y="725" as="sourcePoint" />
            <mxPoint x="-78.5" y="625" as="targetPoint" />
          </mxGeometry>
        </mxCell>
        <mxCell id="h0Rh2DAsyCIrhIGQMmOX-143" value="" style="edgeStyle=none;endArrow=none;strokeWidth=3;strokeColor=#64BBE2;html=1;rounded=0;" parent="1" source="h0Rh2DAsyCIrhIGQMmOX-116" target="h0Rh2DAsyCIrhIGQMmOX-132" edge="1">
          <mxGeometry x="-178.5" y="625" width="100" height="100" as="geometry">
            <mxPoint x="-178.5" y="725" as="sourcePoint" />
            <mxPoint x="-78.5" y="625" as="targetPoint" />
          </mxGeometry>
        </mxCell>
        <mxCell id="h0Rh2DAsyCIrhIGQMmOX-144" value="" style="edgeStyle=none;endArrow=none;strokeWidth=3;strokeColor=#64BBE2;html=1;rounded=0;" parent="1" source="h0Rh2DAsyCIrhIGQMmOX-116" target="h0Rh2DAsyCIrhIGQMmOX-123" edge="1">
          <mxGeometry x="-178.5" y="625" width="100" height="100" as="geometry">
            <mxPoint x="-178.5" y="725" as="sourcePoint" />
            <mxPoint x="-78.5" y="625" as="targetPoint" />
          </mxGeometry>
        </mxCell>
        <mxCell id="h0Rh2DAsyCIrhIGQMmOX-145" value="" style="edgeStyle=none;endArrow=none;strokeWidth=3;strokeColor=#64BBE2;html=1;rounded=0;" parent="1" source="h0Rh2DAsyCIrhIGQMmOX-116" target="h0Rh2DAsyCIrhIGQMmOX-133" edge="1">
          <mxGeometry x="-178.5" y="625" width="100" height="100" as="geometry">
            <mxPoint x="-178.5" y="725" as="sourcePoint" />
            <mxPoint x="-78.5" y="625" as="targetPoint" />
          </mxGeometry>
        </mxCell>
        <mxCell id="h0Rh2DAsyCIrhIGQMmOX-146" value="" style="edgeStyle=none;endArrow=none;strokeWidth=3;strokeColor=#64BBE2;html=1;rounded=0;" parent="1" source="h0Rh2DAsyCIrhIGQMmOX-116" target="h0Rh2DAsyCIrhIGQMmOX-134" edge="1">
          <mxGeometry x="-178.5" y="625" width="100" height="100" as="geometry">
            <mxPoint x="-178.5" y="725" as="sourcePoint" />
            <mxPoint x="-78.5" y="625" as="targetPoint" />
          </mxGeometry>
        </mxCell>
        <mxCell id="h0Rh2DAsyCIrhIGQMmOX-147" value="" style="edgeStyle=none;endArrow=none;strokeWidth=3;strokeColor=#64BBE2;html=1;rounded=0;" parent="1" source="h0Rh2DAsyCIrhIGQMmOX-116" target="h0Rh2DAsyCIrhIGQMmOX-135" edge="1">
          <mxGeometry x="-178.5" y="625" width="100" height="100" as="geometry">
            <mxPoint x="-178.5" y="725" as="sourcePoint" />
            <mxPoint x="-78.5" y="625" as="targetPoint" />
          </mxGeometry>
        </mxCell>
        <mxCell id="h0Rh2DAsyCIrhIGQMmOX-148" value="" style="edgeStyle=none;endArrow=none;strokeWidth=3;strokeColor=#64BBE2;html=1;rounded=0;" parent="1" source="h0Rh2DAsyCIrhIGQMmOX-116" target="h0Rh2DAsyCIrhIGQMmOX-136" edge="1">
          <mxGeometry x="-178.5" y="625" width="100" height="100" as="geometry">
            <mxPoint x="-178.5" y="725" as="sourcePoint" />
            <mxPoint x="-78.5" y="625" as="targetPoint" />
          </mxGeometry>
        </mxCell>
        <mxCell id="h0Rh2DAsyCIrhIGQMmOX-149" value="" style="edgeStyle=none;endArrow=none;strokeWidth=3;strokeColor=#64BBE2;html=1;rounded=0;" parent="1" source="h0Rh2DAsyCIrhIGQMmOX-116" target="h0Rh2DAsyCIrhIGQMmOX-137" edge="1">
          <mxGeometry x="-178.5" y="625" width="100" height="100" as="geometry">
            <mxPoint x="-178.5" y="725" as="sourcePoint" />
            <mxPoint x="-78.5" y="625" as="targetPoint" />
          </mxGeometry>
        </mxCell>
        <mxCell id="h0Rh2DAsyCIrhIGQMmOX-150" value="" style="edgeStyle=none;endArrow=none;strokeWidth=3;strokeColor=#64BBE2;html=1;rounded=0;" parent="1" source="h0Rh2DAsyCIrhIGQMmOX-116" target="h0Rh2DAsyCIrhIGQMmOX-138" edge="1">
          <mxGeometry x="-178.5" y="625" width="100" height="100" as="geometry">
            <mxPoint x="-178.5" y="725" as="sourcePoint" />
            <mxPoint x="-78.5" y="625" as="targetPoint" />
          </mxGeometry>
        </mxCell>
        <mxCell id="h0Rh2DAsyCIrhIGQMmOX-151" value="" style="edgeStyle=none;endArrow=none;strokeWidth=3;strokeColor=#64BBE2;html=1;rounded=0;" parent="1" source="h0Rh2DAsyCIrhIGQMmOX-116" target="h0Rh2DAsyCIrhIGQMmOX-139" edge="1">
          <mxGeometry x="-178.5" y="625" width="100" height="100" as="geometry">
            <mxPoint x="-178.5" y="725" as="sourcePoint" />
            <mxPoint x="-78.5" y="625" as="targetPoint" />
          </mxGeometry>
        </mxCell>
        <mxCell id="h0Rh2DAsyCIrhIGQMmOX-152" value="" style="edgeStyle=none;endArrow=none;strokeWidth=3;strokeColor=#64BBE2;html=1;rounded=0;" parent="1" source="h0Rh2DAsyCIrhIGQMmOX-116" target="h0Rh2DAsyCIrhIGQMmOX-140" edge="1">
          <mxGeometry x="-178.5" y="625" width="100" height="100" as="geometry">
            <mxPoint x="-178.5" y="725" as="sourcePoint" />
            <mxPoint x="-78.5" y="625" as="targetPoint" />
          </mxGeometry>
        </mxCell>
        <UserObject label="&lt;p style=&quot;text-align: justify&quot;&gt;&lt;font style=&quot;vertical-align: inherit&quot;&gt;&lt;font style=&quot;vertical-align: inherit&quot;&gt;&lt;font style=&quot;vertical-align: inherit&quot;&gt;&lt;font style=&quot;vertical-align: inherit&quot;&gt;&lt;font style=&quot;vertical-align: inherit&quot;&gt;&lt;font style=&quot;vertical-align: inherit&quot;&gt;&lt;font style=&quot;vertical-align: inherit&quot;&gt;&lt;font style=&quot;vertical-align: inherit&quot;&gt;&lt;font style=&quot;vertical-align: inherit&quot;&gt;&lt;font style=&quot;vertical-align: inherit&quot;&gt;&lt;font style=&quot;vertical-align: inherit&quot;&gt;&lt;font style=&quot;vertical-align: inherit&quot;&gt;&lt;font style=&quot;vertical-align: inherit&quot;&gt;&lt;font color=&quot;#000000&quot;&gt;La probabilidad es entonces el nivel de &lt;br&gt;certeza que se tiene sobre un evento especifico.&lt;/font&gt;&lt;/font&gt;&lt;/font&gt;&lt;/font&gt;&lt;/font&gt;&lt;/font&gt;&lt;/font&gt;&lt;/font&gt;&lt;/font&gt;&lt;/font&gt;&lt;/font&gt;&lt;/font&gt;&lt;/font&gt;&lt;/font&gt;&lt;/p&gt;&lt;p style=&quot;text-align: justify&quot;&gt;&lt;span style=&quot;color: rgb(0 , 0 , 0)&quot;&gt;Esto, en base a un valor entre 0 y 1, y cuando mas&amp;nbsp;&lt;br&gt;&lt;/span&gt;&lt;span style=&quot;color: rgb(0 , 0 , 0)&quot;&gt;cerca esté de la unidad, significara mayor certidumbre.&lt;br&gt;&lt;/span&gt;&lt;span style=&quot;color: rgb(0 , 0 , 0)&quot;&gt;Por el contrario cuando se aproxima a cero, existe&lt;br&gt;&lt;/span&gt;&lt;span style=&quot;color: rgb(0 , 0 , 0)&quot;&gt;menor seguridad en el resultado final.&lt;/span&gt;&lt;/p&gt;" link="https://economipedia.com/definiciones/probabilidad.html" linkTarget="_blank" id="h0Rh2DAsyCIrhIGQMmOX-153">
          <mxCell style="rounded=1;fillColor=#FFFF33;strokeColor=none;strokeWidth=3;shadow=0;html=1;fontColor=#FFFFFF;align=center;arcSize=12;" parent="1" vertex="1">
            <mxGeometry x="1079.5" y="580" width="307.5" height="110" as="geometry" />
          </mxCell>
        </UserObject>
        <mxCell id="h0Rh2DAsyCIrhIGQMmOX-154" value="" style="edgeStyle=none;endArrow=none;strokeWidth=3;strokeColor=#F5AF58;html=1;rounded=0;entryX=0.5;entryY=1;entryDx=0;entryDy=0;" parent="1" source="h0Rh2DAsyCIrhIGQMmOX-117" target="h0Rh2DAsyCIrhIGQMmOX-153" edge="1">
          <mxGeometry x="46.5" y="610" width="100" height="100" as="geometry">
            <mxPoint x="46.5" y="710" as="sourcePoint" />
            <mxPoint x="1146.9594594594596" y="710" as="targetPoint" />
          </mxGeometry>
        </mxCell>
        <mxCell id="h0Rh2DAsyCIrhIGQMmOX-155" value="¿Qué es la probabilidad?" style="edgeLabel;html=1;align=center;verticalAlign=middle;resizable=0;points=[];fontColor=#000000;" parent="h0Rh2DAsyCIrhIGQMmOX-154" vertex="1" connectable="0">
          <mxGeometry relative="1" as="geometry">
            <mxPoint y="-14" as="offset" />
          </mxGeometry>
        </mxCell>
        <UserObject label="&lt;p style=&quot;box-sizing: inherit ; margin: 0px 0px 20px ; padding: 0px ; font-family: &amp;#34;open sans&amp;#34; , sans-serif ; font-size: 16px&quot;&gt;&lt;font color=&quot;#000000&quot;&gt;La teoría de conjuntos es un área de estudio &lt;br&gt;enfocada en los conjuntos. Por tanto, se encarga &lt;br&gt;de analizar tanto los atributos que poseen, &lt;br&gt;como las relaciones que pueden establecerse entre ellos.&lt;br&gt;&lt;/font&gt;&lt;span style=&quot;color: rgb(0 , 0 , 0)&quot;&gt;Es decir, su unión, intersección, complemento u otro.&lt;/span&gt;&lt;/p&gt;&lt;p style=&quot;box-sizing: inherit ; margin: 0px 0px 20px ; padding: 0px ; font-family: &amp;#34;open sans&amp;#34; , sans-serif ; font-size: 16px&quot;&gt;&lt;span style=&quot;color: rgb(0 , 0 , 0)&quot;&gt;Debemos recordar que un conjunto es&lt;br&gt;&lt;/span&gt;&lt;font color=&quot;#000000&quot; style=&quot;color: rgb(0 , 0 , 0)&quot;&gt;&lt;iframe frameborder=&quot;0&quot; marginwidth=&quot;0&quot; marginheight=&quot;0&quot; width=&quot;0&quot; height=&quot;0&quot; style=&quot;box-sizing: inherit ; max-width: 100% ; height: 0px ; width: 0px&quot;&gt;&lt;/iframe&gt;&lt;/font&gt;&lt;span style=&quot;color: rgb(0 , 0 , 0)&quot;&gt;una agrupación de elementos,&lt;br&gt;&lt;/span&gt;&lt;span style=&quot;color: rgb(0 , 0 , 0)&quot;&gt;ya sean números, letras, palabras,&lt;br&gt;&lt;/span&gt;&lt;span style=&quot;color: rgb(0 , 0 , 0)&quot;&gt;funciones, símbolos, figuras geométricas u otros.&lt;/span&gt;&lt;font color=&quot;#000000&quot; style=&quot;color: rgb(0 , 0 , 0)&quot;&gt;&lt;img border=&quot;0&quot; width=&quot;1&quot; height=&quot;1&quot; src=&quot;https://beacon-iad2.rubiconproject.com/beacon/d/7e97ee50-ce6b-484e-bf3f-b92215ee4f17?oo=0&amp;amp;accountId=23404&amp;amp;siteId=382626&amp;amp;zoneId=2121486&amp;amp;sizeId=57&amp;amp;e=6A1E40E384DA563B0468C0EF3FF4F963007C1E4CD8A608D78E9F8E916C6D159EC087B02F546B14755DF8BA02AA1D5DAAE9F89206FC79094A89F430521B46DE1B74C9FD1EE7FDB3BD1B1043561F962A64A99BBC39987C86AD7A04B62074052572D0ECA835D347A8339785E7749972D5DAC2F1EC2B6CA4A8EC8B46A8F2D35A9D6F5FA4EE0B506DA4CE77B7304E30BB72590264968E10608322D6ACAC3EDC167A945EC1E2D8EDA8C925992425EAB4A7B278E8AFF223AD47AD29&quot; alt=&quot;&quot; style=&quot;box-sizing: inherit ; border-style: none ; max-width: 100% ; height: auto ; vertical-align: top&quot;&gt;&lt;/font&gt;&lt;/p&gt;" link="https://economipedia.com/definiciones/teoria-de-conjuntos.html" linkTarget="_blank" id="h0Rh2DAsyCIrhIGQMmOX-156">
          <mxCell style="rounded=1;fillColor=#FFFF66;strokeColor=none;strokeWidth=3;shadow=0;html=1;fontColor=#FFFFFF;align=center;arcSize=30;" parent="1" vertex="1">
            <mxGeometry x="1780" y="590" width="424" height="225" as="geometry" />
          </mxCell>
        </UserObject>
        <UserObject label="&lt;font color=&quot;#000000&quot;&gt;Ejercicios de &lt;br&gt;conjuntos resueltos&lt;/font&gt;" link="https://www.google.com/url?sa=i&amp;url=https%3A%2F%2Ffdocuments.ec%2Fdocument%2Fejercicios-de-conjuntos-resueltos.html&amp;psig=AOvVaw0Au5b6OqnxZpVHaDJcdnOW&amp;ust=1638513018464000&amp;source=images&amp;cd=vfe&amp;ved=0CAsQjRxqFwoTCLDj2Oa-xPQCFQAAAAAdAAAAABAJ" linkTarget="_blank" id="h0Rh2DAsyCIrhIGQMmOX-157">
          <mxCell style="rounded=1;fillColor=#0066CC;strokeColor=#FFFFFF;strokeWidth=3;shadow=1;html=1;fontColor=#FFFFFF;" parent="1" vertex="1">
            <mxGeometry x="1932" y="1120" width="120" height="40" as="geometry" />
          </mxCell>
        </UserObject>
        <mxCell id="h0Rh2DAsyCIrhIGQMmOX-158" value="" style="edgeStyle=none;endArrow=none;strokeWidth=3;strokeColor=#F08E81;html=1;rounded=0;entryX=0.5;entryY=1;entryDx=0;entryDy=0;exitX=1;exitY=0;exitDx=0;exitDy=0;" parent="1" source="h0Rh2DAsyCIrhIGQMmOX-118" target="h0Rh2DAsyCIrhIGQMmOX-156" edge="1">
          <mxGeometry x="72" y="675" width="100" height="100" as="geometry">
            <mxPoint x="1880" y="927" as="sourcePoint" />
            <mxPoint x="1861.3478260869565" y="775" as="targetPoint" />
          </mxGeometry>
        </mxCell>
        <mxCell id="h0Rh2DAsyCIrhIGQMmOX-159" value="¿Qué es?" style="edgeLabel;html=1;align=center;verticalAlign=middle;resizable=0;points=[];fontColor=#000000;" parent="h0Rh2DAsyCIrhIGQMmOX-158" vertex="1" connectable="0">
          <mxGeometry relative="1" as="geometry">
            <mxPoint x="4" y="-1" as="offset" />
          </mxGeometry>
        </mxCell>
        <mxCell id="h0Rh2DAsyCIrhIGQMmOX-160" value="" style="edgeStyle=none;endArrow=none;strokeWidth=3;strokeColor=#F08E81;html=1;rounded=0;entryX=0.5;entryY=0;entryDx=0;entryDy=0;exitX=1;exitY=1;exitDx=0;exitDy=0;" parent="1" source="h0Rh2DAsyCIrhIGQMmOX-118" target="h0Rh2DAsyCIrhIGQMmOX-157" edge="1">
          <mxGeometry x="74" y="675" width="100" height="100" as="geometry">
            <mxPoint x="74" y="775" as="sourcePoint" />
            <mxPoint x="174" y="675" as="targetPoint" />
          </mxGeometry>
        </mxCell>
        <mxCell id="h0Rh2DAsyCIrhIGQMmOX-161" value="Ejemplo" style="edgeLabel;html=1;align=center;verticalAlign=middle;resizable=0;points=[];fontColor=#000000;" parent="h0Rh2DAsyCIrhIGQMmOX-160" vertex="1" connectable="0">
          <mxGeometry relative="1" as="geometry">
            <mxPoint x="-28" y="-25" as="offset" />
          </mxGeometry>
        </mxCell>
        <UserObject label="&lt;font color=&quot;#000000&quot;&gt;La expresion alude &lt;br&gt;a la probabilidad existente de que&lt;br&gt;&amp;nbsp;suceda un evento A, &lt;br&gt;conociendo que ademas ocurre otro evento B&lt;/font&gt;" link="https://definicion.de/probabilidad-condicional/" linkTarget="_blank" id="h0Rh2DAsyCIrhIGQMmOX-162">
          <mxCell style="rounded=1;fillColor=#FFFF66;strokeColor=none;strokeWidth=3;shadow=0;html=1;fontColor=#FFFFFF;arcSize=34;" parent="1" vertex="1">
            <mxGeometry x="2099" y="1177.5" width="261" height="65" as="geometry" />
          </mxCell>
        </UserObject>
        <UserObject label="&lt;font color=&quot;#000000&quot;&gt;Ejercicio&lt;/font&gt;" link="https://www.youtube.com/watch?v=rN6IWbanhy0" linkTarget="_blank" id="h0Rh2DAsyCIrhIGQMmOX-163">
          <mxCell style="rounded=1;fillColor=#3333FF;strokeColor=none;strokeWidth=3;shadow=0;html=1;fontColor=#FFFFFF;" parent="1" vertex="1">
            <mxGeometry x="2164" y="1535" width="120" height="40" as="geometry" />
          </mxCell>
        </UserObject>
        <mxCell id="h0Rh2DAsyCIrhIGQMmOX-164" value="" style="edgeStyle=none;endArrow=none;strokeWidth=3;strokeColor=#64BBE2;html=1;rounded=0;" parent="1" source="h0Rh2DAsyCIrhIGQMmOX-119" target="h0Rh2DAsyCIrhIGQMmOX-162" edge="1">
          <mxGeometry x="19" y="765" width="100" height="100" as="geometry">
            <mxPoint x="19" y="865" as="sourcePoint" />
            <mxPoint x="119" y="765" as="targetPoint" />
          </mxGeometry>
        </mxCell>
        <mxCell id="h0Rh2DAsyCIrhIGQMmOX-165" value="Definición" style="edgeLabel;html=1;align=center;verticalAlign=middle;resizable=0;points=[];fontColor=#000000;" parent="h0Rh2DAsyCIrhIGQMmOX-164" vertex="1" connectable="0">
          <mxGeometry relative="1" as="geometry">
            <mxPoint x="-23" y="19" as="offset" />
          </mxGeometry>
        </mxCell>
        <mxCell id="h0Rh2DAsyCIrhIGQMmOX-166" value="" style="edgeStyle=none;endArrow=none;strokeWidth=3;strokeColor=#64BBE2;html=1;rounded=0;" parent="1" source="h0Rh2DAsyCIrhIGQMmOX-119" target="h0Rh2DAsyCIrhIGQMmOX-163" edge="1">
          <mxGeometry x="19" y="765" width="100" height="100" as="geometry">
            <mxPoint x="19" y="865" as="sourcePoint" />
            <mxPoint x="119" y="765" as="targetPoint" />
          </mxGeometry>
        </mxCell>
        <mxCell id="h0Rh2DAsyCIrhIGQMmOX-167" value="Ejemplifiquemos" style="edgeLabel;html=1;align=center;verticalAlign=middle;resizable=0;points=[];fontColor=#000000;" parent="h0Rh2DAsyCIrhIGQMmOX-166" vertex="1" connectable="0">
          <mxGeometry relative="1" as="geometry">
            <mxPoint x="-11" y="-6" as="offset" />
          </mxGeometry>
        </mxCell>
        <UserObject label="&lt;span style=&quot;font-family: sans-serif ; font-size: 14px&quot;&gt;&lt;font color=&quot;#000000&quot;&gt;Es una expresión que exhibe &lt;br&gt;la importancia y uso de &lt;br&gt;las probabilidades condicionales. &lt;br&gt;Es interesante para las ciencias en todas sus ramas, &lt;br&gt;ya que ayuda la inteligencia de la probabilidad &lt;br&gt;de aspectos causales una vez &lt;br&gt;observados sus efectos.&lt;/font&gt;&lt;/span&gt;" link="http://enciclopedia.us.es/index.php/Teorema_de_Bayes" linkTarget="_blank" id="h0Rh2DAsyCIrhIGQMmOX-168">
          <mxCell style="rounded=1;fillColor=#FFFF66;strokeColor=none;strokeWidth=3;shadow=0;html=1;fontColor=#FFFFFF;align=center;arcSize=34;" parent="1" vertex="1">
            <mxGeometry x="1880" y="1598.75" width="384" height="112.5" as="geometry" />
          </mxCell>
        </UserObject>
        <mxCell id="h0Rh2DAsyCIrhIGQMmOX-169" value="&lt;span style=&quot;font-family: sans-serif ; font-size: 14px&quot;&gt;P(A&lt;/span&gt;&lt;sub style=&quot;line-height: 1 ; font-family: sans-serif&quot;&gt;j&lt;/sub&gt;&lt;span style=&quot;font-family: sans-serif ; font-size: 14px&quot;&gt;|B) = {P(A&lt;/span&gt;&lt;sub style=&quot;line-height: 1 ; font-family: sans-serif&quot;&gt;j&lt;/sub&gt;&lt;span style=&quot;font-family: sans-serif ; font-size: 14px&quot;&gt;) P(B|A&lt;/span&gt;&lt;sub style=&quot;line-height: 1 ; font-family: sans-serif&quot;&gt;j&lt;/sub&gt;&lt;span style=&quot;font-family: sans-serif ; font-size: 14px&quot;&gt;)}÷ Σ&lt;/span&gt;&lt;sub style=&quot;line-height: 1 ; font-family: sans-serif&quot;&gt;j&lt;/sub&gt;&lt;span style=&quot;font-family: sans-serif ; font-size: 14px&quot;&gt;&amp;nbsp;P(A&lt;/span&gt;&lt;sub style=&quot;line-height: 1 ; font-family: sans-serif&quot;&gt;j&lt;/sub&gt;&lt;span style=&quot;font-family: sans-serif ; font-size: 14px&quot;&gt;)P(B|A&lt;/span&gt;&lt;sub style=&quot;line-height: 1 ; font-family: sans-serif&quot;&gt;j&lt;/sub&gt;&lt;span style=&quot;font-family: sans-serif ; font-size: 14px&quot;&gt;)&lt;/span&gt;" style="rounded=1;fillColor=#a29dc5;strokeColor=none;strokeWidth=3;shadow=0;html=1;fontColor=#FFFFFF;" parent="1" vertex="1">
          <mxGeometry x="1998" y="1780" width="286" height="40" as="geometry" />
        </mxCell>
        <UserObject label="&lt;font color=&quot;#000000&quot;&gt;Problemas (3)&lt;/font&gt;" link="https://es.slideshare.net/luiselipehernandez/ejemplos-del-teorema-de-bayes" linkTarget="_blank" id="h0Rh2DAsyCIrhIGQMmOX-170">
          <mxCell style="rounded=1;fillColor=#3333FF;strokeColor=none;strokeWidth=3;shadow=0;html=1;fontColor=#FFFFFF;arcSize=50;" parent="1" vertex="1">
            <mxGeometry x="2012" y="1957.5" width="120" height="40" as="geometry" />
          </mxCell>
        </UserObject>
        <mxCell id="h0Rh2DAsyCIrhIGQMmOX-171" value="" style="edgeStyle=none;endArrow=none;strokeWidth=3;strokeColor=#A29DC5;html=1;rounded=0;" parent="1" source="h0Rh2DAsyCIrhIGQMmOX-120" target="h0Rh2DAsyCIrhIGQMmOX-169" edge="1">
          <mxGeometry x="294" y="465" width="100" height="100" as="geometry">
            <mxPoint x="294" y="565" as="sourcePoint" />
            <mxPoint x="394" y="465" as="targetPoint" />
          </mxGeometry>
        </mxCell>
        <mxCell id="h0Rh2DAsyCIrhIGQMmOX-172" value="Formula" style="edgeLabel;html=1;align=center;verticalAlign=middle;resizable=0;points=[];fontColor=#000000;" parent="h0Rh2DAsyCIrhIGQMmOX-171" vertex="1" connectable="0">
          <mxGeometry relative="1" as="geometry">
            <mxPoint x="-19" y="-3" as="offset" />
          </mxGeometry>
        </mxCell>
        <mxCell id="h0Rh2DAsyCIrhIGQMmOX-173" value="" style="edgeStyle=none;endArrow=none;strokeWidth=3;strokeColor=#A29DC5;html=1;rounded=0;" parent="1" source="h0Rh2DAsyCIrhIGQMmOX-120" target="h0Rh2DAsyCIrhIGQMmOX-170" edge="1">
          <mxGeometry x="294" y="465" width="100" height="100" as="geometry">
            <mxPoint x="294" y="565" as="sourcePoint" />
            <mxPoint x="394" y="465" as="targetPoint" />
          </mxGeometry>
        </mxCell>
        <mxCell id="h0Rh2DAsyCIrhIGQMmOX-174" value="&lt;font color=&quot;#000000&quot;&gt;Lo podemos ver en:&lt;/font&gt;" style="edgeLabel;html=1;align=center;verticalAlign=middle;resizable=0;points=[];fontColor=#FFFFFF;" parent="h0Rh2DAsyCIrhIGQMmOX-173" vertex="1" connectable="0">
          <mxGeometry relative="1" as="geometry">
            <mxPoint x="22" y="18" as="offset" />
          </mxGeometry>
        </mxCell>
        <mxCell id="h0Rh2DAsyCIrhIGQMmOX-175" value="" style="edgeStyle=none;endArrow=none;strokeWidth=3;strokeColor=#F5AF58;html=1;rounded=0;entryX=0.5;entryY=0;entryDx=0;entryDy=0;" parent="1" source="h0Rh2DAsyCIrhIGQMmOX-121" target="h0Rh2DAsyCIrhIGQMmOX-177" edge="1">
          <mxGeometry x="286.5" y="607.5" width="100" height="100" as="geometry">
            <mxPoint x="286.5" y="707.5" as="sourcePoint" />
            <mxPoint x="1260" y="2220" as="targetPoint" />
            <Array as="points" />
          </mxGeometry>
        </mxCell>
        <mxCell id="h0Rh2DAsyCIrhIGQMmOX-176" value="Ejemplo" style="edgeLabel;html=1;align=center;verticalAlign=middle;resizable=0;points=[];fontColor=#000000;" parent="h0Rh2DAsyCIrhIGQMmOX-175" vertex="1" connectable="0">
          <mxGeometry relative="1" as="geometry">
            <mxPoint y="-1" as="offset" />
          </mxGeometry>
        </mxCell>
        <UserObject label="&lt;font color=&quot;#000000&quot;&gt;Probabilidad de un&lt;br&gt;evento sencillo&lt;/font&gt;" link="https://www.youtube.com/watch?v=xYco67hkECs" linkTarget="_blank" id="h0Rh2DAsyCIrhIGQMmOX-177">
          <mxCell style="rounded=1;fillColor=#0000FF;strokeColor=none;strokeWidth=3;shadow=0;html=1;fontColor=#FFFFFF;" parent="1" vertex="1">
            <mxGeometry x="1173.25" y="2120" width="120" height="40" as="geometry" />
          </mxCell>
        </UserObject>
        <mxCell id="h0Rh2DAsyCIrhIGQMmOX-178" value="Permutacion" style="rounded=1;fillColor=#f08e81;strokeColor=none;strokeWidth=3;shadow=0;html=1;fontColor=#FFFFFF;" parent="1" vertex="1">
          <mxGeometry x="281.5" y="1558.75" width="120" height="40" as="geometry" />
        </mxCell>
        <mxCell id="h0Rh2DAsyCIrhIGQMmOX-179" value="Multiplicacion" style="rounded=1;fillColor=#f08e81;strokeColor=none;strokeWidth=3;shadow=0;html=1;fontColor=#FFFFFF;" parent="1" vertex="1">
          <mxGeometry x="414" y="1500" width="120" height="40" as="geometry" />
        </mxCell>
        <mxCell id="h0Rh2DAsyCIrhIGQMmOX-180" value="Metodos" style="rounded=1;fillColor=#f08e81;strokeColor=none;strokeWidth=3;shadow=0;html=1;fontColor=#FFFFFF;" parent="1" vertex="1">
          <mxGeometry x="557.5" y="1610" width="120" height="40" as="geometry" />
        </mxCell>
        <mxCell id="h0Rh2DAsyCIrhIGQMmOX-181" value="Combinacion" style="rounded=1;fillColor=#f08e81;strokeColor=none;strokeWidth=3;shadow=0;html=1;fontColor=#FFFFFF;" parent="1" vertex="1">
          <mxGeometry x="361.5" y="1635" width="120" height="40" as="geometry" />
        </mxCell>
        <UserObject label="&lt;span style=&quot;color: rgb(51 , 51 , 51) ; font-family: &amp;#34;tahoma&amp;#34; , &amp;#34;geneva&amp;#34; , &amp;#34;arial&amp;#34; , &amp;#34;helvetica&amp;#34; , sans-serif ; font-size: 16px ; text-align: justify&quot;&gt;En esta técnica de conteo&lt;br&gt;&amp;nbsp;se considera que existe &lt;br&gt;el orden en la muestra, pero no es posible &lt;br&gt;repetir ningún elemento de la población &lt;br&gt;en su conformación.&lt;/span&gt;" link="https://danacaweb.com/permutaciones.html" linkTarget="_blank" id="h0Rh2DAsyCIrhIGQMmOX-182">
          <mxCell style="rounded=1;fillColor=#3333FF;strokeColor=none;strokeWidth=3;shadow=0;html=1;fontColor=#FFFFFF;" parent="1" vertex="1">
            <mxGeometry x="-120" y="1519.38" width="305" height="118.75" as="geometry" />
          </mxCell>
        </UserObject>
        <UserObject label="&lt;span style=&quot;font-family: &amp;#34;tahoma&amp;#34; , &amp;#34;geneva&amp;#34; , &amp;#34;arial&amp;#34; , &amp;#34;helvetica&amp;#34; , sans-serif ; font-size: 16px ; text-align: justify&quot;&gt;&lt;font color=&quot;#000000&quot;&gt;&amp;nbsp;Requiere el contar la cantidad &lt;br&gt;de elementos de conjuntos, &lt;br&gt;relacionarlos todos entre sí o&lt;br&gt;&amp;nbsp;formar subgrupos respondiendo a&lt;br&gt;&amp;nbsp;determinadas características.&lt;/font&gt;&lt;/span&gt;" link="https://danacaweb.com/tcnicas_de_conteo.html" linkTarget="_blank" id="h0Rh2DAsyCIrhIGQMmOX-183">
          <mxCell style="rounded=1;fillColor=#FFFF33;strokeColor=none;strokeWidth=3;shadow=0;html=1;fontColor=#FFFFFF;" parent="1" vertex="1">
            <mxGeometry x="239.13" y="1970" width="296.5" height="115" as="geometry" />
          </mxCell>
        </UserObject>
        <mxCell id="h0Rh2DAsyCIrhIGQMmOX-184" value="&lt;strong style=&quot;font-family: &amp;#34;tahoma&amp;#34; , &amp;#34;geneva&amp;#34; , &amp;#34;arial&amp;#34; , &amp;#34;helvetica&amp;#34; , sans-serif ; font-size: 13.3333px&quot;&gt;#(S)=N&lt;sub&gt;1&lt;/sub&gt;&amp;nbsp;x N&lt;sub&gt;2&lt;/sub&gt;&amp;nbsp;X ... X N&lt;sub&gt;r&lt;/sub&gt;&lt;/strong&gt;" style="rounded=1;fillColor=#f08e81;strokeColor=none;strokeWidth=3;shadow=0;html=1;fontColor=#FFFFFF;" parent="1" vertex="1">
          <mxGeometry x="90" y="1370" width="170" height="43.75" as="geometry" />
        </mxCell>
        <mxCell id="h0Rh2DAsyCIrhIGQMmOX-185" value="&lt;img alt=&quot;&quot; src=&quot;https://danacaweb.com/eXe_LaTeX_math_12.gif&quot; width=&quot;120&quot; height=&quot;34&quot; style=&quot;max-width: 100% ; height: auto ; color: rgb(51 , 51 , 51) ; font-family: &amp;#34;tahoma&amp;#34; , &amp;#34;geneva&amp;#34; , &amp;#34;arial&amp;#34; , &amp;#34;helvetica&amp;#34; , sans-serif ; font-size: 16.8px ; text-align: left ; background-color: rgb(247 , 247 , 217) ; display: block ; margin-left: auto ; margin-right: auto&quot;&gt;" style="rounded=1;fillColor=#f08e81;strokeColor=none;strokeWidth=3;shadow=0;html=1;fontColor=#FFFFFF;" parent="1" vertex="1">
          <mxGeometry x="-120" y="1895" width="150" height="70" as="geometry" />
        </mxCell>
        <mxCell id="h0Rh2DAsyCIrhIGQMmOX-186" value="&lt;p style=&quot;margin: 1em 0px ; font-family: &amp;#34;tahoma&amp;#34; , &amp;#34;geneva&amp;#34; , &amp;#34;arial&amp;#34; , &amp;#34;helvetica&amp;#34; , sans-serif ; font-size: 16.8px ; text-align: left&quot;&gt;&lt;span style=&quot;font-size: 12pt&quot;&gt;&lt;img alt=&quot;&quot; src=&quot;https://danacaweb.com/eXe_LaTeX_math_6.gif&quot; width=&quot;112&quot; height=&quot;31&quot; style=&quot;max-width: 100% ; height: auto ; display: block ; margin-left: auto ; margin-right: auto&quot;&gt;&lt;/span&gt;&lt;/p&gt;&lt;p style=&quot;margin: 1em 0px ; font-family: &amp;#34;tahoma&amp;#34; , &amp;#34;geneva&amp;#34; , &amp;#34;arial&amp;#34; , &amp;#34;helvetica&amp;#34; , sans-serif ; font-size: 16.8px ; text-align: left&quot;&gt;&lt;span style=&quot;font-size: 12pt&quot;&gt;Donde, n! = n x (n - 1) x (n - 2) x ... x 2 x 1, y 0!=1&lt;/span&gt;&lt;/p&gt;" style="rounded=1;fillColor=#f08e81;strokeColor=none;strokeWidth=3;shadow=0;html=1;fontColor=#FFFFFF;" parent="1" vertex="1">
          <mxGeometry x="-660" y="1525.63" width="460" height="106.25" as="geometry" />
        </mxCell>
        <UserObject label="&lt;p&gt;&lt;font color=&quot;#000000&quot; style=&quot;font-size: 16px&quot;&gt;Se aplica en experimentos&lt;/font&gt;&lt;/p&gt;&lt;font color=&quot;#000000&quot; size=&quot;3&quot;&gt;en los que no se tiene en cuenta&lt;br&gt;&amp;nbsp;el orden en que se eligen los elementos &lt;br&gt;y no es posible la repetición.&lt;/font&gt;" link="https://danacaweb.com/combinaciones.html" linkTarget="_blank" id="h0Rh2DAsyCIrhIGQMmOX-187">
          <mxCell style="rounded=1;fillColor=#3333FF;strokeColor=none;strokeWidth=3;shadow=0;html=1;fontColor=#FFFFFF;arcSize=22;align=center;" parent="1" vertex="1">
            <mxGeometry x="-190" y="1700" width="290" height="110" as="geometry" />
          </mxCell>
        </UserObject>
        <mxCell id="h0Rh2DAsyCIrhIGQMmOX-188" value="&lt;strong style=&quot;font-family: &amp;#34;tahoma&amp;#34; , &amp;#34;geneva&amp;#34; , &amp;#34;arial&amp;#34; , &amp;#34;helvetica&amp;#34; , sans-serif ; font-size: 13.3333px&quot;&gt;#(S)=N&lt;sup&gt;n&lt;/sup&gt;&lt;/strong&gt;" style="rounded=1;fillColor=#f08e81;strokeColor=none;strokeWidth=3;shadow=0;html=1;fontColor=#FFFFFF;" parent="1" vertex="1">
          <mxGeometry x="670" y="1373.75" width="120" height="40" as="geometry" />
        </mxCell>
        <mxCell id="h0Rh2DAsyCIrhIGQMmOX-189" value="" style="edgeStyle=none;endArrow=none;strokeWidth=3;strokeColor=#F08E81;html=1;rounded=0;exitX=1;exitY=0.5;exitDx=0;exitDy=0;entryX=0;entryY=0.5;entryDx=0;entryDy=0;" parent="1" source="h0Rh2DAsyCIrhIGQMmOX-232" target="h0Rh2DAsyCIrhIGQMmOX-188" edge="1">
          <mxGeometry x="231.5" y="620" width="100" height="100" as="geometry">
            <mxPoint x="231.5" y="720" as="sourcePoint" />
            <mxPoint x="670" y="1430" as="targetPoint" />
          </mxGeometry>
        </mxCell>
        <mxCell id="h0Rh2DAsyCIrhIGQMmOX-190" value="" style="edgeStyle=none;endArrow=none;strokeWidth=3;strokeColor=#F08E81;html=1;rounded=0;exitX=0;exitY=0.5;exitDx=0;exitDy=0;" parent="1" source="h0Rh2DAsyCIrhIGQMmOX-180" target="h0Rh2DAsyCIrhIGQMmOX-178" edge="1">
          <mxGeometry x="231.5" y="620" width="100" height="100" as="geometry">
            <mxPoint x="450" y="1690" as="sourcePoint" />
            <mxPoint x="331.5" y="620" as="targetPoint" />
          </mxGeometry>
        </mxCell>
        <mxCell id="h0Rh2DAsyCIrhIGQMmOX-191" value="" style="edgeStyle=none;endArrow=none;strokeWidth=3;strokeColor=#F08E81;html=1;rounded=0;exitX=0;exitY=0.5;exitDx=0;exitDy=0;" parent="1" source="h0Rh2DAsyCIrhIGQMmOX-180" target="h0Rh2DAsyCIrhIGQMmOX-179" edge="1">
          <mxGeometry x="231.5" y="620" width="100" height="100" as="geometry">
            <mxPoint x="231.5" y="720" as="sourcePoint" />
            <mxPoint x="331.5" y="620" as="targetPoint" />
          </mxGeometry>
        </mxCell>
        <mxCell id="h0Rh2DAsyCIrhIGQMmOX-192" value="" style="edgeStyle=none;endArrow=none;strokeWidth=3;strokeColor=#F08E81;html=1;rounded=0;" parent="1" source="h0Rh2DAsyCIrhIGQMmOX-122" target="h0Rh2DAsyCIrhIGQMmOX-180" edge="1">
          <mxGeometry x="231.5" y="620" width="100" height="100" as="geometry">
            <mxPoint x="231.5" y="720" as="sourcePoint" />
            <mxPoint x="331.5" y="620" as="targetPoint" />
          </mxGeometry>
        </mxCell>
        <mxCell id="h0Rh2DAsyCIrhIGQMmOX-193" value="&lt;font color=&quot;#000000&quot;&gt;implica&lt;/font&gt;" style="edgeLabel;html=1;align=center;verticalAlign=middle;resizable=0;points=[];fontSize=16;fontColor=#B5739D;" parent="h0Rh2DAsyCIrhIGQMmOX-192" vertex="1" connectable="0">
          <mxGeometry relative="1" as="geometry">
            <mxPoint x="5" y="17" as="offset" />
          </mxGeometry>
        </mxCell>
        <mxCell id="h0Rh2DAsyCIrhIGQMmOX-194" value="" style="edgeStyle=none;endArrow=none;strokeWidth=3;strokeColor=#F08E81;html=1;rounded=0;exitX=0;exitY=0.5;exitDx=0;exitDy=0;" parent="1" source="h0Rh2DAsyCIrhIGQMmOX-180" target="h0Rh2DAsyCIrhIGQMmOX-181" edge="1">
          <mxGeometry x="231.5" y="620" width="100" height="100" as="geometry">
            <mxPoint x="231.5" y="720" as="sourcePoint" />
            <mxPoint x="331.5" y="620" as="targetPoint" />
          </mxGeometry>
        </mxCell>
        <mxCell id="h0Rh2DAsyCIrhIGQMmOX-195" value="" style="edgeStyle=none;endArrow=none;strokeWidth=3;strokeColor=#F08E81;html=1;rounded=0;exitX=0;exitY=0.5;exitDx=0;exitDy=0;entryX=1;entryY=0.5;entryDx=0;entryDy=0;" parent="1" source="h0Rh2DAsyCIrhIGQMmOX-178" target="h0Rh2DAsyCIrhIGQMmOX-182" edge="1">
          <mxGeometry x="231.5" y="620" width="100" height="100" as="geometry">
            <mxPoint x="231.5" y="720" as="sourcePoint" />
            <mxPoint x="331.5" y="620" as="targetPoint" />
          </mxGeometry>
        </mxCell>
        <mxCell id="h0Rh2DAsyCIrhIGQMmOX-196" value="" style="edgeStyle=none;endArrow=none;strokeWidth=3;strokeColor=#F08E81;html=1;rounded=0;" parent="1" source="h0Rh2DAsyCIrhIGQMmOX-122" target="h0Rh2DAsyCIrhIGQMmOX-183" edge="1">
          <mxGeometry x="231.5" y="620" width="100" height="100" as="geometry">
            <mxPoint x="231.5" y="720" as="sourcePoint" />
            <mxPoint x="331.5" y="620" as="targetPoint" />
          </mxGeometry>
        </mxCell>
        <mxCell id="h0Rh2DAsyCIrhIGQMmOX-197" value="&lt;span style=&quot;color: rgb(0 , 0 , 0) ; font-family: &amp;#34;tahoma&amp;#34; , &amp;#34;geneva&amp;#34; , &amp;#34;arial&amp;#34; , &amp;#34;helvetica&amp;#34; , sans-serif ; text-align: justify ; background-color: rgb(248 , 249 , 250)&quot;&gt;Esto&lt;/span&gt;" style="edgeLabel;html=1;align=center;verticalAlign=middle;resizable=0;points=[];fontSize=16;fontColor=#B5739D;" parent="h0Rh2DAsyCIrhIGQMmOX-196" vertex="1" connectable="0">
          <mxGeometry relative="1" as="geometry">
            <mxPoint x="-14" y="7" as="offset" />
          </mxGeometry>
        </mxCell>
        <mxCell id="h0Rh2DAsyCIrhIGQMmOX-198" value="" style="edgeStyle=none;endArrow=none;strokeWidth=3;strokeColor=#F08E81;html=1;rounded=0;exitX=0.5;exitY=0;exitDx=0;exitDy=0;" parent="1" source="h0Rh2DAsyCIrhIGQMmOX-179" target="h0Rh2DAsyCIrhIGQMmOX-232" edge="1">
          <mxGeometry x="231.5" y="620" width="100" height="100" as="geometry">
            <mxPoint x="231.5" y="720" as="sourcePoint" />
            <mxPoint x="331.5" y="620" as="targetPoint" />
          </mxGeometry>
        </mxCell>
        <mxCell id="h0Rh2DAsyCIrhIGQMmOX-199" value="" style="edgeStyle=none;endArrow=none;strokeWidth=3;strokeColor=#F08E81;html=1;rounded=0;exitX=0;exitY=0.5;exitDx=0;exitDy=0;" parent="1" source="h0Rh2DAsyCIrhIGQMmOX-232" target="h0Rh2DAsyCIrhIGQMmOX-184" edge="1">
          <mxGeometry x="231.5" y="620" width="100" height="100" as="geometry">
            <mxPoint x="231.5" y="720" as="sourcePoint" />
            <mxPoint x="331.5" y="620" as="targetPoint" />
          </mxGeometry>
        </mxCell>
        <mxCell id="h0Rh2DAsyCIrhIGQMmOX-200" value="" style="edgeStyle=none;endArrow=none;strokeWidth=3;strokeColor=#F08E81;html=1;rounded=0;exitX=0;exitY=0.5;exitDx=0;exitDy=0;entryX=1;entryY=0.5;entryDx=0;entryDy=0;" parent="1" source="h0Rh2DAsyCIrhIGQMmOX-182" target="h0Rh2DAsyCIrhIGQMmOX-186" edge="1">
          <mxGeometry x="-771" y="440.62" width="100" height="100" as="geometry">
            <mxPoint x="-970.0000000000002" y="1340" as="sourcePoint" />
            <mxPoint x="20" y="1720" as="targetPoint" />
          </mxGeometry>
        </mxCell>
        <mxCell id="h0Rh2DAsyCIrhIGQMmOX-201" value="" style="edgeStyle=none;endArrow=none;strokeWidth=3;strokeColor=#F08E81;html=1;rounded=0;exitX=0;exitY=0.5;exitDx=0;exitDy=0;" parent="1" source="h0Rh2DAsyCIrhIGQMmOX-181" target="h0Rh2DAsyCIrhIGQMmOX-187" edge="1">
          <mxGeometry x="231.5" y="620" width="100" height="100" as="geometry">
            <mxPoint x="231.5" y="720" as="sourcePoint" />
            <mxPoint x="331.5" y="620" as="targetPoint" />
          </mxGeometry>
        </mxCell>
        <mxCell id="h0Rh2DAsyCIrhIGQMmOX-202" style="edgeStyle=orthogonalEdgeStyle;rounded=0;html=1;exitX=0.75;exitY=0;entryX=0.75;entryY=0;startArrow=none;startFill=0;endArrow=block;endFill=1;jettySize=auto;orthogonalLoop=1;strokeColor=#12aab5;strokeWidth=6;fontSize=20;fontColor=#2F5B7C;" parent="1" edge="1">
          <mxGeometry relative="1" as="geometry">
            <mxPoint x="1654" y="940" as="sourcePoint" />
            <mxPoint x="1654" y="940" as="targetPoint" />
          </mxGeometry>
        </mxCell>
        <mxCell id="h0Rh2DAsyCIrhIGQMmOX-203" value="&lt;font style=&quot;vertical-align: inherit&quot;&gt;&lt;font style=&quot;vertical-align: inherit&quot;&gt;PROBABILIDAD&lt;/font&gt;&lt;/font&gt;" style="ellipse;whiteSpace=wrap;html=1;shadow=0;fontFamily=Helvetica;fontSize=30;fontColor=#2F5B7C;align=center;strokeColor=#2F5B7C;strokeWidth=6;fillColor=#FFFFFF;fontStyle=1;gradientColor=none;" parent="1" vertex="1">
          <mxGeometry x="988.25" y="1220" width="490" height="355" as="geometry" />
        </mxCell>
        <mxCell id="h0Rh2DAsyCIrhIGQMmOX-204" value="&lt;font style=&quot;vertical-align: inherit&quot;&gt;&lt;font style=&quot;vertical-align: inherit&quot;&gt;&lt;font style=&quot;vertical-align: inherit&quot;&gt;&lt;font style=&quot;vertical-align: inherit&quot;&gt;Axiomas&lt;/font&gt;&lt;/font&gt;&lt;/font&gt;&lt;/font&gt;" style="ellipse;whiteSpace=wrap;html=1;shadow=0;fontFamily=Helvetica;fontSize=20;fontColor=#FFFFFF;align=center;strokeWidth=3;fillColor=#736ca8;strokeColor=none;" parent="1" vertex="1">
          <mxGeometry x="230" y="1122.5" width="120" height="120" as="geometry" />
        </mxCell>
        <mxCell id="h0Rh2DAsyCIrhIGQMmOX-205" value="Organisation" style="rounded=1;fillColor=#a29dc5;strokeColor=none;strokeWidth=3;shadow=0;html=1;fontColor=#FFFFFF;" parent="1" vertex="1">
          <mxGeometry x="245" y="1190" width="120" height="40" as="geometry" />
        </mxCell>
        <mxCell id="h0Rh2DAsyCIrhIGQMmOX-206" value="Oak" style="rounded=1;fillColor=#a29dc5;strokeColor=none;strokeWidth=3;shadow=0;html=1;fontColor=#FFFFFF;" parent="1" vertex="1">
          <mxGeometry x="352.5" y="1130" width="120" height="40" as="geometry" />
        </mxCell>
        <mxCell id="h0Rh2DAsyCIrhIGQMmOX-207" value="Birch" style="rounded=1;fillColor=#a29dc5;strokeColor=none;strokeWidth=3;shadow=0;html=1;fontColor=#FFFFFF;" parent="1" vertex="1">
          <mxGeometry x="492.5" y="1140" width="120" height="40" as="geometry" />
        </mxCell>
        <mxCell id="h0Rh2DAsyCIrhIGQMmOX-208" value="Silverfern" style="rounded=1;fillColor=#a29dc5;strokeColor=none;strokeWidth=3;shadow=0;html=1;fontColor=#FFFFFF;" parent="1" vertex="1">
          <mxGeometry x="557.5" y="1210" width="120" height="40" as="geometry" />
        </mxCell>
        <mxCell id="h0Rh2DAsyCIrhIGQMmOX-209" value="Personal &#xa;Development" style="rounded=1;fillColor=#a29dc5;strokeColor=none;strokeWidth=3;shadow=0;html=1;fontColor=#FFFFFF;" parent="1" vertex="1">
          <mxGeometry x="582.5" y="1290" width="120" height="40" as="geometry" />
        </mxCell>
        <mxCell id="h0Rh2DAsyCIrhIGQMmOX-210" value="Pine" style="rounded=1;fillColor=#a29dc5;strokeColor=none;strokeWidth=3;shadow=0;html=1;fontColor=#FFFFFF;" parent="1" vertex="1">
          <mxGeometry x="110" y="1210" width="120" height="40" as="geometry" />
        </mxCell>
        <mxCell id="h0Rh2DAsyCIrhIGQMmOX-211" value="Lime" style="rounded=1;fillColor=#a29dc5;strokeColor=none;strokeWidth=3;shadow=0;html=1;fontColor=#FFFFFF;" parent="1" vertex="1">
          <mxGeometry x="515" y="1400" width="120" height="40" as="geometry" />
        </mxCell>
        <mxCell id="h0Rh2DAsyCIrhIGQMmOX-212" value="Chestnut" style="rounded=1;fillColor=#a29dc5;strokeColor=none;strokeWidth=3;shadow=0;html=1;fontColor=#FFFFFF;" parent="1" vertex="1">
          <mxGeometry x="465" y="1460" width="120" height="40" as="geometry" />
        </mxCell>
        <mxCell id="h0Rh2DAsyCIrhIGQMmOX-213" value="Beech" style="rounded=1;fillColor=#a29dc5;strokeColor=none;strokeWidth=3;shadow=0;html=1;fontColor=#FFFFFF;" parent="1" vertex="1">
          <mxGeometry x="325" y="1460" width="120" height="40" as="geometry" />
        </mxCell>
        <mxCell id="h0Rh2DAsyCIrhIGQMmOX-214" value="Poplar" style="rounded=1;fillColor=#a29dc5;strokeColor=none;strokeWidth=3;shadow=0;html=1;fontColor=#FFFFFF;" parent="1" vertex="1">
          <mxGeometry x="185" y="1425" width="120" height="40" as="geometry" />
        </mxCell>
        <mxCell id="h0Rh2DAsyCIrhIGQMmOX-215" value="Willow" style="rounded=1;fillColor=#a29dc5;strokeColor=none;strokeWidth=3;shadow=0;html=1;fontColor=#FFFFFF;" parent="1" vertex="1">
          <mxGeometry x="40" y="1320" width="120" height="40" as="geometry" />
        </mxCell>
        <mxCell id="h0Rh2DAsyCIrhIGQMmOX-216" value="" style="edgeStyle=none;endArrow=none;strokeWidth=3;strokeColor=#A29DC5;html=1;rounded=0;" parent="1" source="h0Rh2DAsyCIrhIGQMmOX-204" target="h0Rh2DAsyCIrhIGQMmOX-205" edge="1">
          <mxGeometry x="-1455" y="265" width="100" height="100" as="geometry">
            <mxPoint x="-1455" y="365" as="sourcePoint" />
            <mxPoint x="-1355" y="265" as="targetPoint" />
          </mxGeometry>
        </mxCell>
        <mxCell id="h0Rh2DAsyCIrhIGQMmOX-217" value="Acacia" style="rounded=1;fillColor=#a29dc5;strokeColor=none;strokeWidth=3;shadow=0;html=1;fontColor=#FFFFFF;" parent="1" vertex="1">
          <mxGeometry x="120" y="1300" width="120" height="40" as="geometry" />
        </mxCell>
        <mxCell id="h0Rh2DAsyCIrhIGQMmOX-218" value="" style="edgeStyle=none;endArrow=none;strokeWidth=3;strokeColor=#A29DC5;html=1;rounded=0;" parent="1" source="h0Rh2DAsyCIrhIGQMmOX-204" target="h0Rh2DAsyCIrhIGQMmOX-206" edge="1">
          <mxGeometry x="-1455" y="265" width="100" height="100" as="geometry">
            <mxPoint x="-1455" y="365" as="sourcePoint" />
            <mxPoint x="-1355" y="265" as="targetPoint" />
          </mxGeometry>
        </mxCell>
        <mxCell id="h0Rh2DAsyCIrhIGQMmOX-219" value="" style="edgeStyle=none;endArrow=none;strokeWidth=3;strokeColor=#A29DC5;html=1;rounded=0;" parent="1" source="h0Rh2DAsyCIrhIGQMmOX-204" target="h0Rh2DAsyCIrhIGQMmOX-207" edge="1">
          <mxGeometry x="-1455" y="265" width="100" height="100" as="geometry">
            <mxPoint x="-1455" y="365" as="sourcePoint" />
            <mxPoint x="-1355" y="265" as="targetPoint" />
          </mxGeometry>
        </mxCell>
        <mxCell id="h0Rh2DAsyCIrhIGQMmOX-220" value="" style="edgeStyle=none;endArrow=none;strokeWidth=3;strokeColor=#A29DC5;html=1;rounded=0;" parent="1" source="h0Rh2DAsyCIrhIGQMmOX-204" target="h0Rh2DAsyCIrhIGQMmOX-208" edge="1">
          <mxGeometry x="-1455" y="265" width="100" height="100" as="geometry">
            <mxPoint x="-1455" y="365" as="sourcePoint" />
            <mxPoint x="-1355" y="265" as="targetPoint" />
          </mxGeometry>
        </mxCell>
        <mxCell id="h0Rh2DAsyCIrhIGQMmOX-221" value="" style="edgeStyle=none;endArrow=none;strokeWidth=3;strokeColor=#A29DC5;html=1;rounded=0;" parent="1" source="h0Rh2DAsyCIrhIGQMmOX-204" target="h0Rh2DAsyCIrhIGQMmOX-209" edge="1">
          <mxGeometry x="-1455" y="265" width="100" height="100" as="geometry">
            <mxPoint x="-1455" y="365" as="sourcePoint" />
            <mxPoint x="-1355" y="265" as="targetPoint" />
          </mxGeometry>
        </mxCell>
        <mxCell id="h0Rh2DAsyCIrhIGQMmOX-222" value="" style="edgeStyle=none;endArrow=none;strokeWidth=3;strokeColor=#A29DC5;html=1;rounded=0;" parent="1" source="h0Rh2DAsyCIrhIGQMmOX-204" target="h0Rh2DAsyCIrhIGQMmOX-210" edge="1">
          <mxGeometry x="-1455" y="265" width="100" height="100" as="geometry">
            <mxPoint x="-1455" y="365" as="sourcePoint" />
            <mxPoint x="-1355" y="265" as="targetPoint" />
          </mxGeometry>
        </mxCell>
        <mxCell id="h0Rh2DAsyCIrhIGQMmOX-223" value="" style="edgeStyle=none;endArrow=none;strokeWidth=3;strokeColor=#A29DC5;html=1;rounded=0;startArrow=none;" parent="1" source="h0Rh2DAsyCIrhIGQMmOX-232" target="h0Rh2DAsyCIrhIGQMmOX-211" edge="1">
          <mxGeometry x="-1455" y="265" width="100" height="100" as="geometry">
            <mxPoint x="-1455" y="365" as="sourcePoint" />
            <mxPoint x="-1355" y="265" as="targetPoint" />
          </mxGeometry>
        </mxCell>
        <mxCell id="h0Rh2DAsyCIrhIGQMmOX-224" value="" style="edgeStyle=none;endArrow=none;strokeWidth=3;strokeColor=#A29DC5;html=1;rounded=0;" parent="1" source="h0Rh2DAsyCIrhIGQMmOX-204" target="h0Rh2DAsyCIrhIGQMmOX-212" edge="1">
          <mxGeometry x="-1455" y="265" width="100" height="100" as="geometry">
            <mxPoint x="-1455" y="365" as="sourcePoint" />
            <mxPoint x="-1355" y="265" as="targetPoint" />
          </mxGeometry>
        </mxCell>
        <mxCell id="h0Rh2DAsyCIrhIGQMmOX-225" value="" style="edgeStyle=none;endArrow=none;strokeWidth=3;strokeColor=#A29DC5;html=1;rounded=0;" parent="1" source="h0Rh2DAsyCIrhIGQMmOX-204" target="h0Rh2DAsyCIrhIGQMmOX-213" edge="1">
          <mxGeometry x="-1455" y="265" width="100" height="100" as="geometry">
            <mxPoint x="-1455" y="365" as="sourcePoint" />
            <mxPoint x="-1355" y="265" as="targetPoint" />
          </mxGeometry>
        </mxCell>
        <mxCell id="h0Rh2DAsyCIrhIGQMmOX-226" value="" style="edgeStyle=none;endArrow=none;strokeWidth=3;strokeColor=#A29DC5;html=1;rounded=0;" parent="1" source="h0Rh2DAsyCIrhIGQMmOX-204" target="h0Rh2DAsyCIrhIGQMmOX-214" edge="1">
          <mxGeometry x="-1455" y="265" width="100" height="100" as="geometry">
            <mxPoint x="-1455" y="365" as="sourcePoint" />
            <mxPoint x="-1355" y="265" as="targetPoint" />
          </mxGeometry>
        </mxCell>
        <mxCell id="h0Rh2DAsyCIrhIGQMmOX-227" value="" style="edgeStyle=none;endArrow=none;strokeWidth=3;strokeColor=#A29DC5;html=1;rounded=0;" parent="1" source="h0Rh2DAsyCIrhIGQMmOX-204" target="h0Rh2DAsyCIrhIGQMmOX-215" edge="1">
          <mxGeometry x="-1455" y="265" width="100" height="100" as="geometry">
            <mxPoint x="-1455" y="365" as="sourcePoint" />
            <mxPoint x="-1355" y="265" as="targetPoint" />
          </mxGeometry>
        </mxCell>
        <mxCell id="h0Rh2DAsyCIrhIGQMmOX-228" value="" style="edgeStyle=none;endArrow=none;strokeWidth=3;strokeColor=#A29DC5;html=1;rounded=0;" parent="1" source="h0Rh2DAsyCIrhIGQMmOX-204" target="h0Rh2DAsyCIrhIGQMmOX-217" edge="1">
          <mxGeometry x="-1455" y="265" width="100" height="100" as="geometry">
            <mxPoint x="-1455" y="365" as="sourcePoint" />
            <mxPoint x="-1355" y="265" as="targetPoint" />
          </mxGeometry>
        </mxCell>
        <mxCell id="h0Rh2DAsyCIrhIGQMmOX-229" value="" style="edgeStyle=none;endArrow=none;strokeWidth=3;strokeColor=#A29DC5;html=1;rounded=0;entryX=0.5;entryY=1;entryDx=0;entryDy=0;" parent="1" source="h0Rh2DAsyCIrhIGQMmOX-120" target="h0Rh2DAsyCIrhIGQMmOX-168" edge="1">
          <mxGeometry x="-1131" y="160" width="100" height="100" as="geometry">
            <mxPoint x="-1131" y="260" as="sourcePoint" />
            <mxPoint x="-1031" y="160" as="targetPoint" />
          </mxGeometry>
        </mxCell>
        <mxCell id="h0Rh2DAsyCIrhIGQMmOX-230" value="¿De que hablamos?" style="edgeLabel;html=1;align=center;verticalAlign=middle;resizable=0;points=[];fontColor=#000000;" parent="h0Rh2DAsyCIrhIGQMmOX-229" vertex="1" connectable="0">
          <mxGeometry relative="1" as="geometry">
            <mxPoint x="-56" y="18" as="offset" />
          </mxGeometry>
        </mxCell>
        <mxCell id="h0Rh2DAsyCIrhIGQMmOX-231" style="edgeStyle=none;rounded=0;html=1;exitX=0.5;exitY=1;endArrow=none;endFill=0;jettySize=auto;orthogonalLoop=1;strokeColor=#736CA8;strokeWidth=2;fillColor=#64bbe2;fontSize=20;fontColor=#23445D;" parent="1" source="h0Rh2DAsyCIrhIGQMmOX-217" target="h0Rh2DAsyCIrhIGQMmOX-217" edge="1">
          <mxGeometry relative="1" as="geometry" />
        </mxCell>
        <UserObject label="&lt;span style=&quot;font-family: &amp;#34;tahoma&amp;#34; , &amp;#34;geneva&amp;#34; , &amp;#34;arial&amp;#34; , &amp;#34;helvetica&amp;#34; , sans-serif ; font-size: 16px ; text-align: left&quot;&gt;&lt;font color=&quot;#000000&quot;&gt;Permite encontrar el número &lt;br&gt;de elementos del espacio muestral&lt;br&gt;&amp;nbsp;en aquellos experimentos aleatorios &lt;br&gt;en los cuales el orden es relevante y&lt;br&gt;&amp;nbsp;puede haber repetición.&lt;/font&gt;&lt;/span&gt;" link="https://danacaweb.com/principio_de_multiplicacin.html" linkTarget="_blank" id="h0Rh2DAsyCIrhIGQMmOX-232">
          <mxCell style="rounded=1;fillColor=#3333FF;strokeColor=none;strokeWidth=3;shadow=0;html=1;fontColor=#FFFFFF;" parent="1" vertex="1">
            <mxGeometry x="328.25" y="1340" width="291.5" height="107.5" as="geometry" />
          </mxCell>
        </UserObject>
        <mxCell id="h0Rh2DAsyCIrhIGQMmOX-233" value="" style="edgeStyle=none;endArrow=none;strokeWidth=3;strokeColor=#A29DC5;html=1;rounded=0;" parent="1" source="h0Rh2DAsyCIrhIGQMmOX-204" target="h0Rh2DAsyCIrhIGQMmOX-232" edge="1">
          <mxGeometry x="-1455" y="265" width="100" height="100" as="geometry">
            <mxPoint x="469.94729252763545" y="1374.0996897051032" as="sourcePoint" />
            <mxPoint x="529.2857142857142" y="1400" as="targetPoint" />
          </mxGeometry>
        </mxCell>
        <mxCell id="h0Rh2DAsyCIrhIGQMmOX-234" value="" style="endArrow=none;strokeWidth=6;strokeColor=#736CA8;html=1;rounded=0;" parent="1" source="h0Rh2DAsyCIrhIGQMmOX-203" edge="1">
          <mxGeometry relative="1" as="geometry">
            <mxPoint x="999.4919126316629" y="1344.3491226685117" as="sourcePoint" />
            <mxPoint x="856.8748580474439" y="1312.7410190083192" as="targetPoint" />
          </mxGeometry>
        </mxCell>
        <mxCell id="h0Rh2DAsyCIrhIGQMmOX-235" value="&lt;font color=&quot;#b5739d&quot;&gt;N elementos&amp;nbsp;&lt;br&gt;n muestra&lt;/font&gt;" style="whiteSpace=wrap;html=1;shape=mxgraph.basic.cloud_callout;shadow=1;labelBackgroundColor=none;fontColor=#FFFFFF;strokeColor=#FFFFFF;fillColor=#33FFFF;" parent="1" vertex="1">
          <mxGeometry x="756.5" y="1280" width="133.5" height="95" as="geometry" />
        </mxCell>
        <mxCell id="h0Rh2DAsyCIrhIGQMmOX-236" value="&lt;font color=&quot;#b5739d&quot;&gt;N poblaciones&amp;nbsp;&lt;br&gt;distintas&lt;/font&gt;" style="whiteSpace=wrap;html=1;shape=mxgraph.basic.cloud_callout;shadow=1;labelBackgroundColor=none;fontColor=#FFFFFF;strokeColor=#FFFFFF;fillColor=#00FFFF;direction=east;" parent="1" vertex="1">
          <mxGeometry x="239.13" y="1280" width="120.87" height="90" as="geometry" />
        </mxCell>
        <mxCell id="h0Rh2DAsyCIrhIGQMmOX-237" value="&lt;font color=&quot;#b5739d&quot;&gt;Población N&lt;br&gt;Muestra n&lt;br&gt;&lt;br&gt;&lt;br&gt;&lt;br&gt;&lt;/font&gt;" style="whiteSpace=wrap;html=1;shape=mxgraph.basic.cloud_callout;shadow=1;labelBackgroundColor=none;fontColor=#FFFFFF;strokeColor=#FFFFFF;fillColor=#33FFFF;" parent="1" vertex="1">
          <mxGeometry x="-320" y="1420" width="160" height="105.63" as="geometry" />
        </mxCell>
        <mxCell id="h0Rh2DAsyCIrhIGQMmOX-238" value="" style="edgeStyle=none;endArrow=none;strokeWidth=3;strokeColor=#F08E81;html=1;rounded=0;exitX=0.5;exitY=0;exitDx=0;exitDy=0;entryX=0.5;entryY=1;entryDx=0;entryDy=0;" parent="1" source="h0Rh2DAsyCIrhIGQMmOX-185" target="h0Rh2DAsyCIrhIGQMmOX-187" edge="1">
          <mxGeometry x="241.5" y="630" width="100" height="100" as="geometry">
            <mxPoint x="371.5" y="1665" as="sourcePoint" />
            <mxPoint x="109.99999999999977" y="1729.329643296433" as="targetPoint" />
          </mxGeometry>
        </mxCell>
        <mxCell id="h0Rh2DAsyCIrhIGQMmOX-239" value="" style="shape=image;verticalLabelPosition=bottom;labelBackgroundColor=#ffffff;verticalAlign=top;aspect=fixed;imageAspect=0;image=data:image/png,iVBORw0KGgoAAAANSUhEUgAAAH4AAAAtCAYAAABoOd/RAAAETklEQVR4Ae1aO7LiMBDkdJyAE3AAjkTOAciJyQn2JC9kq9nqrX7DSBrZsjG2gleSRvNvzVj4effz8+fZ/7aXg10HfXugA/MO/EY7XhH4x+Px3O12zR4H0AWdvdN8ttNkgb/f7y/QMbYCagqdrXzbkp4s8KfT6Ym/1gmZSm9rP9esLwn87XZ7VTvGVALQtg+Hg/sowN7xeHzt2UdFRHfK5lLpQ3IBGZubueJLAh+tyv1+/wLfexzkgorqnysRLezU5mJxwEcrks/r8/nsntwc8FEbLQCZQ8eQXCwOeLRotPBSwvTGjyDsYyEHPHTDBmyV7HzD/pBcLA74KCA85QDGtm7dSwEXPWAp+SXRNd5oLhYFfE0LhuMIGABQjmvdSwFEGdspUvxLpmu8jKuUi0UBH61CtjZ9GaPBY657KdCi3SUlvwR6q1zMGcvbrT56Cr1gtd1FgY/amzMptbZa5aLW7hj+wcAryHSAtNQtn3w6rgF4xq1xkVaTC5Wfej4IeD7DLpfL240cFxs8LhB4xPlvB35MLj4ZezXwdBbgcq4A86QrLTf3dOT4l7RH34fmgvKfiKka+NZOfjL41rF8k74OfP9//L//D89dgTl73IuOXsVFZdfK5+UEtF7xveKXV/Gp09rp47/eeav46Js7JJ8vLvAT7nq9/r/lo21GwZnrzR19jfo1Nx9yBh/nsvsGPH+XYiw5AWfxggLgYc7f7lHgS7agp+Yv5S9B9xIL/fTfymMv9VPN8o5dp3xk/LX6S3JvwMNAtAqhHPwY9aCQXnK2pruUdOX24Q8PpcdX+wGFp6MFzXsHAt+j+VQfSnIu8LWAwAiryXNeHdJ59ICpTO285A/3U69WhyS91kflhz34RFoJQPLZsSTnAl9qwWqEiSMNBrX6SbdjjQ0rW7O2ibSybLGge76DZmWmXHv5HOIDZHJyLvAIzH5MkAoWyu0J5UUvJVOjP6cjspcLHvKaaBuz7kVs5Xh4wCIXYfUZc11H9Vg561sS+GhFqlNQTscwWmNcR3WTf8xo/bO6sM+DS7+41j0rV7uGruhFWH3G3K4jeqyc9TcJPBhtBVjhoeup9Hr+aNLsvndIwa/AeweYSY2MtEk/MOKAWTrXGMmrNM65F9FDGW/MAs9Wx0R4CmppU+jM+cBEeTwe8PQP/JD1gPd0RWmqU22pfM5n8kX0kNcbs8BDgMnxhIfQ1OEh8rUyuSR6iSctdcuvta/81E0afNPqVzrn3hjV48mSVgSejN86IrlIlPWfz/MWH5NY3am19QVrexH2QAWf6ozoAY+V+6VDF2uc20QiRiYl9VbOk2mRGwsEu6k+TsCjB5W+qv2oHsv3S4cu1jq3yVxqnFMdOC/e1bd6BO1VlpeMT9Lm9nETwCv4nwQ3ZxtdSVt+jrfF3maAb5GsNenowPcvcMZ/1bGmilh7LL3ie8X3il97lWt8veJ7xfeK14pY+7xX/EYr/i8IcaJhH7kUKgAAAABJRU5ErkJggg==;" parent="1" vertex="1">
          <mxGeometry x="-108" y="1907.5" width="126" height="45" as="geometry" />
        </mxCell>
        <mxCell id="h0Rh2DAsyCIrhIGQMmOX-240" value="&lt;font color=&quot;#b5739d&quot;&gt;Poblacion N&lt;br&gt;Muestra n&lt;br&gt;&lt;br&gt;&lt;/font&gt;" style="whiteSpace=wrap;html=1;shape=mxgraph.basic.cloud_callout;shadow=1;labelBackgroundColor=none;fontSize=16;fontColor=#000000;strokeColor=#FFFFFF;fillColor=#33FFFF;" parent="1" vertex="1">
          <mxGeometry y="1820" width="150" height="75" as="geometry" />
        </mxCell>
      </root>
    </mxGraphModel>
  </diagram>
</mxfile>
